<svg xmlns="http://www.w3.org/2000/svg" xmlns:xlink="http://www.w3.org/1999/xlink" viewBox="0 0 1080 1080" width="1080" height="1080" preserveAspectRatio="xMidYMid meet" style="width: 100%; height: 100%; transform: translate3d(0px, 0px, 0px); content-visibility: visible;"><defs><clipPath id="__lottie_element_731"><rect width="1080" height="1080" x="0" y="0"></rect></clipPath><filter id="__lottie_element_758"><feColorMatrix type="matrix" color-interpolation-filters="sRGB" values="0 0 0 0 0.19607912003993988 0 0 0 0 0.1960868239402771 0 0 0 0 0.4980418384075165 0 0 0 1 0" result="filter_result_0"></feColorMatrix></filter><clipPath id="__lottie_element_760"><path d="M0,0 L1080,0 L1080,1080 L0,1080z"></path></clipPath><filter id="__lottie_element_786"><feColorMatrix type="matrix" color-interpolation-filters="sRGB" values="0 0 0 0 0.19607843458652496 0 0 0 0 0.19607843458652496 0 0 0 0 0.49803921580314636 0 0 0 1 0" result="filter_result_0"></feColorMatrix></filter><clipPath id="__lottie_element_821"><path d="M0,0 L1080,0 L1080,1080 L0,1080z"></path></clipPath><path d="" fill-opacity="1"></path><clipPath id="__lottie_element_834"><path d="M0,0 L1080,0 L1080,1080 L0,1080z"></path></clipPath><filter id="__lottie_element_839"><feColorMatrix type="matrix" color-interpolation-filters="sRGB" values="0 0 0 0 0.19607843458652496 0 0 0 0 0.19607843458652496 0 0 0 0 0.49803921580314636 0 0 0 1 0" result="filter_result_0"></feColorMatrix></filter><clipPath id="__lottie_element_865"><path d="M0,0 L1080,0 L1080,1080 L0,1080z"></path></clipPath><clipPath id="__lottie_element_869"><path d="M0,0 L1080,0 L1080,1080 L0,1080z"></path></clipPath></defs><g clip-path="url(#__lottie_element_731)"><g transform="matrix(1,0,0,1,414.3330078125,412.6999816894531)" opacity="1" style="display: block;"><g opacity="1" transform="matrix(1,0,0,1,151.2570037841797,93.41500091552734)"><path fill="rgb(240,243,245)" fill-opacity="1" d=" M151.0070037841797,-81.43099975585938 C151.0070037841797,-81.43099975585938 151.0070037841797,81.43199920654297 151.0070037841797,81.43199920654297 C151.0070037841797,87.9209976196289 145.76300048828125,93.16500091552734 139.2729949951172,93.16500091552734 C139.2729949951172,93.16500091552734 -139.2729949951172,93.16500091552734 -139.2729949951172,93.16500091552734 C-145.76300048828125,93.16500091552734 -151.0070037841797,87.9209976196289 -151.0070037841797,81.43199920654297 C-151.0070037841797,81.43199920654297 -151.0070037841797,-81.43099975585938 -151.0070037841797,-81.43099975585938 C-151.0070037841797,-87.91999816894531 -145.76300048828125,-93.16500091552734 -139.2729949951172,-93.16500091552734 C-139.2729949951172,-93.16500091552734 139.2729949951172,-93.16500091552734 139.2729949951172,-93.16500091552734 C145.76300048828125,-93.16500091552734 151.0070037841797,-87.91999816894531 151.0070037841797,-81.43099975585938z"></path></g><g opacity="1" transform="matrix(1,0,0,1,151.2570037841797,10.331000328063965)"><path fill="rgb(173,173,204)" fill-opacity="1" d=" M151.0070037841797,1.652999997138977 C151.0070037841797,1.652999997138977 151.0070037841797,10.081000328063965 151.0070037841797,10.081000328063965 C151.0070037841797,10.081000328063965 -151.0070037841797,10.081000328063965 -151.0070037841797,10.081000328063965 C-151.0070037841797,10.081000328063965 -151.0070037841797,1.652999997138977 -151.0070037841797,1.652999997138977 C-151.0070037841797,-4.835999965667725 -145.76300048828125,-10.081000328063965 -139.2729949951172,-10.081000328063965 C-139.2729949951172,-10.081000328063965 139.2729949951172,-10.081000328063965 139.2729949951172,-10.081000328063965 C145.76300048828125,-10.081000328063965 151.0070037841797,-4.835999965667725 151.0070037841797,1.652999997138977z"></path></g><g opacity="1" transform="matrix(1,0,0,1,256.5199890136719,10.331000328063965)"><path fill="rgb(255,255,255)" fill-opacity="1" d=" M4.328999996185303,0 C4.328999996185303,2.3910000324249268 2.3910000324249268,4.328999996185303 0,4.328999996185303 C-2.390000104904175,4.328999996185303 -4.328999996185303,2.3910000324249268 -4.328999996185303,0 C-4.328999996185303,-2.3910000324249268 -2.390000104904175,-4.328999996185303 0,-4.328999996185303 C2.3910000324249268,-4.328999996185303 4.328999996185303,-2.3910000324249268 4.328999996185303,0z"></path></g><g opacity="1" transform="matrix(1,0,0,1,269.78399658203125,10.331000328063965)"><path fill="rgb(255,255,255)" fill-opacity="1" d=" M4.328999996185303,0 C4.328999996185303,2.3910000324249268 2.3910000324249268,4.328999996185303 0,4.328999996185303 C-2.390000104904175,4.328999996185303 -4.328999996185303,2.3910000324249268 -4.328999996185303,0 C-4.328999996185303,-2.3910000324249268 -2.390000104904175,-4.328999996185303 0,-4.328999996185303 C2.3910000324249268,-4.328999996185303 4.328999996185303,-2.3910000324249268 4.328999996185303,0z"></path></g><g opacity="1" transform="matrix(1,0,0,1,283.0480041503906,10.331000328063965)"><path fill="rgb(255,255,255)" fill-opacity="1" d=" M4.328999996185303,0 C4.328999996185303,2.3910000324249268 2.390000104904175,4.328999996185303 -0.0010000000474974513,4.328999996185303 C-2.3910000324249268,4.328999996185303 -4.328999996185303,2.3910000324249268 -4.328999996185303,0 C-4.328999996185303,-2.3910000324249268 -2.3910000324249268,-4.328999996185303 -0.0010000000474974513,-4.328999996185303 C2.390000104904175,-4.328999996185303 4.328999996185303,-2.3910000324249268 4.328999996185303,0z"></path></g></g><g transform="matrix(1,0,0,1,785.5579833984375,348.01300048828125)" opacity="1" style="display: block;"><g opacity="1" transform="matrix(1,0,0,1,0,0)"></g><g opacity="1" transform="matrix(1,0,0,1,72.37200164794922,44.74700164794922)"><path fill="rgb(240,243,245)" fill-opacity="1" d=" M72.12200164794922,-38.893001556396484 C72.12200164794922,-38.893001556396484 72.12200164794922,38.89099884033203 72.12200164794922,38.89099884033203 C72.12200164794922,41.99100112915039 69.61699676513672,44.49599838256836 66.51799774169922,44.49599838256836 C66.51799774169922,44.49599838256836 -66.51799774169922,44.49599838256836 -66.51799774169922,44.49599838256836 C-69.61799621582031,44.49599838256836 -72.12200164794922,41.99100112915039 -72.12200164794922,38.89099884033203 C-72.12200164794922,38.89099884033203 -72.12200164794922,-38.893001556396484 -72.12200164794922,-38.893001556396484 C-72.12200164794922,-41.992000579833984 -69.61799621582031,-44.49599838256836 -66.51799774169922,-44.49599838256836 C-66.51799774169922,-44.49599838256836 66.51799774169922,-44.49599838256836 66.51799774169922,-44.49599838256836 C69.61699676513672,-44.49599838256836 72.12200164794922,-41.992000579833984 72.12200164794922,-38.893001556396484z"></path></g><g opacity="1" transform="matrix(1,0,0,1,72.37200164794922,5.065000057220459)"><path fill="rgb(173,173,204)" fill-opacity="1" d=" M72.12200164794922,0.7889999747276306 C72.12200164794922,0.7889999747276306 72.12200164794922,4.814000129699707 72.12200164794922,4.814000129699707 C72.12200164794922,4.814000129699707 -72.12200164794922,4.814000129699707 -72.12200164794922,4.814000129699707 C-72.12200164794922,4.814000129699707 -72.12200164794922,0.7889999747276306 -72.12200164794922,0.7889999747276306 C-72.12200164794922,-2.309999942779541 -69.61799621582031,-4.814000129699707 -66.51799774169922,-4.814000129699707 C-66.51799774169922,-4.814000129699707 66.51799774169922,-4.814000129699707 66.51799774169922,-4.814000129699707 C69.61699676513672,-4.814000129699707 72.12200164794922,-2.309999942779541 72.12200164794922,0.7889999747276306z"></path></g><g opacity="1" transform="matrix(1,0,0,1,122.64600372314453,5.065000057220459)"><path fill="rgb(255,255,255)" fill-opacity="1" d=" M2.068000078201294,0 C2.068000078201294,1.1419999599456787 1.1410000324249268,2.066999912261963 -0.0010000000474974513,2.066999912261963 C-1.1419999599456787,2.066999912261963 -2.068000078201294,1.1419999599456787 -2.068000078201294,0 C-2.068000078201294,-1.1419999599456787 -1.1419999599456787,-2.066999912261963 -0.0010000000474974513,-2.066999912261963 C1.1410000324249268,-2.066999912261963 2.068000078201294,-1.1419999599456787 2.068000078201294,0z"></path></g><g opacity="1" transform="matrix(1,0,0,1,128.9810028076172,5.065000057220459)"><path fill="rgb(255,255,255)" fill-opacity="1" d=" M2.068000078201294,0 C2.068000078201294,1.1419999599456787 1.1410000324249268,2.066999912261963 -0.0010000000474974513,2.066999912261963 C-1.1419999599456787,2.066999912261963 -2.068000078201294,1.1419999599456787 -2.068000078201294,0 C-2.068000078201294,-1.1419999599456787 -1.1419999599456787,-2.066999912261963 -0.0010000000474974513,-2.066999912261963 C1.1410000324249268,-2.066999912261963 2.068000078201294,-1.1419999599456787 2.068000078201294,0z"></path></g><g opacity="1" transform="matrix(1,0,0,1,135.3159942626953,5.065000057220459)"><path fill="rgb(255,255,255)" fill-opacity="1" d=" M2.068000078201294,0 C2.068000078201294,1.1419999599456787 1.1410000324249268,2.066999912261963 -0.0010000000474974513,2.066999912261963 C-1.1419999599456787,2.066999912261963 -2.068000078201294,1.1419999599456787 -2.068000078201294,0 C-2.068000078201294,-1.1419999599456787 -1.1419999599456787,-2.066999912261963 -0.0010000000474974513,-2.066999912261963 C1.1410000324249268,-2.066999912261963 2.068000078201294,-1.1419999599456787 2.068000078201294,0z"></path></g></g><g transform="matrix(1.0047399997711182,0,0,1.0047399997711182,516.2777099609375,400.56671142578125)" opacity="1" style="display: block;"><g opacity="1" transform="matrix(1,0,0,1,345.36199951171875,-3.1489999294281006)"><path stroke-linecap="butt" stroke-linejoin="miter" fill-opacity="0" stroke-miterlimit="4" stroke="rgb(64,236,182)" stroke-opacity="1" stroke-width="11" d=" M0,-20.16200065612793 C11.127408027648926,-20.16200065612793 20.16200065612793,-11.127408027648926 20.16200065612793,0 C20.16200065612793,11.127408027648926 11.127408027648926,20.16200065612793 0,20.16200065612793 C-11.127408027648926,20.16200065612793 -20.16200065612793,11.127408027648926 -20.16200065612793,0 C-20.16200065612793,-10.621000289916992 -11.930999755859375,-19.334999084472656 -1.50600004196167,-20.106000900268555"></path></g><g opacity="1" transform="matrix(1,0,0,1,345.36199951171875,-3.1489999294281006)"><path stroke-linecap="butt" stroke-linejoin="miter" fill-opacity="0" stroke-miterlimit="4" stroke="rgb(93,20,230)" stroke-opacity="1" stroke-width="11" d=" M0,-20.16200065612793 C3.9820001125335693,-20.16200065612793 7.696000099182129,-19.0049991607666 10.824000358581543,-17.009000778198242"></path></g><g opacity="1" transform="matrix(1,0,0,1,345.36199951171875,-3.1489999294281006)"><path stroke-linecap="butt" stroke-linejoin="miter" fill-opacity="0" stroke-miterlimit="4" stroke="rgb(39,35,86)" stroke-opacity="1" stroke-width="11" d=" M0,-20.16200065612793 C4.9039998054504395,-20.16200065612793 9.401000022888184,-18.406999588012695 12.89799976348877,-15.491999626159668"></path></g></g><g clip-path="url(#__lottie_element_865)" transform="matrix(1,0,0,1,0,0)" opacity="1" style="display: block;"><g transform="matrix(1,0,0,0.4226137101650238,304.9109802246094,324.80877685546875)" opacity="1" style="display: block;"><g opacity="1" transform="matrix(1,0,0,1,7.435999870300293,56.292999267578125)"><path fill="rgb(91,91,153)" fill-opacity="1" d=" M7.185999870300293,56.042999267578125 C7.185999870300293,56.042999267578125 -7.185999870300293,56.042999267578125 -7.185999870300293,56.042999267578125 C-7.185999870300293,56.042999267578125 -7.185999870300293,-56.042999267578125 -7.185999870300293,-56.042999267578125 C-7.185999870300293,-56.042999267578125 7.185999870300293,-56.042999267578125 7.185999870300293,-56.042999267578125 C7.185999870300293,-56.042999267578125 7.185999870300293,56.042999267578125 7.185999870300293,56.042999267578125z"></path></g></g><g transform="matrix(1,0,0,0.5148675441741943,283.6609802246094,314.42626953125)" opacity="1" style="display: block;"><g opacity="1" transform="matrix(1,0,0,1,7.435999870300293,56.292999267578125)"><path fill="rgb(91,91,153)" fill-opacity="1" d=" M7.185999870300293,56.042999267578125 C7.185999870300293,56.042999267578125 -7.185999870300293,56.042999267578125 -7.185999870300293,56.042999267578125 C-7.185999870300293,56.042999267578125 -7.185999870300293,-56.042999267578125 -7.185999870300293,-56.042999267578125 C-7.185999870300293,-56.042999267578125 7.185999870300293,-56.042999267578125 7.185999870300293,-56.042999267578125 C7.185999870300293,-56.042999267578125 7.185999870300293,56.042999267578125 7.185999870300293,56.042999267578125z"></path></g></g><g transform="matrix(1,0,0,0.42533549666404724,261.9109802246094,324.5024719238281)" opacity="1" style="display: block;"><g opacity="1" transform="matrix(1,0,0,1,7.435999870300293,56.292999267578125)"><path fill="rgb(91,91,153)" fill-opacity="1" d=" M7.185999870300293,56.042999267578125 C7.185999870300293,56.042999267578125 -7.185999870300293,56.042999267578125 -7.185999870300293,56.042999267578125 C-7.185999870300293,56.042999267578125 -7.185999870300293,-56.042999267578125 -7.185999870300293,-56.042999267578125 C-7.185999870300293,-56.042999267578125 7.185999870300293,-56.042999267578125 7.185999870300293,-56.042999267578125 C7.185999870300293,-56.042999267578125 7.185999870300293,56.042999267578125 7.185999870300293,56.042999267578125z"></path></g></g><g transform="matrix(1,0,0,0.6843112707138062,240.16099548339844,295.3565673828125)" opacity="1" style="display: block;"><g opacity="1" transform="matrix(1,0,0,1,7.435999870300293,56.292999267578125)"><path fill="rgb(91,91,153)" fill-opacity="1" d=" M7.185999870300293,56.042999267578125 C7.185999870300293,56.042999267578125 -7.185999870300293,56.042999267578125 -7.185999870300293,56.042999267578125 C-7.185999870300293,56.042999267578125 -7.185999870300293,-56.042999267578125 -7.185999870300293,-56.042999267578125 C-7.185999870300293,-56.042999267578125 7.185999870300293,-56.042999267578125 7.185999870300293,-56.042999267578125 C7.185999870300293,-56.042999267578125 7.185999870300293,56.042999267578125 7.185999870300293,56.042999267578125z"></path></g></g><g transform="matrix(1,0,0,0.5337802767753601,218.91099548339844,312.2977600097656)" opacity="1" style="display: block;"><g opacity="1" transform="matrix(1,0,0,1,7.435999870300293,56.292999267578125)"><path fill="rgb(91,91,153)" fill-opacity="1" d=" M7.185999870300293,56.042999267578125 C7.185999870300293,56.042999267578125 -7.185999870300293,56.042999267578125 -7.185999870300293,56.042999267578125 C-7.185999870300293,56.042999267578125 -7.185999870300293,-56.042999267578125 -7.185999870300293,-56.042999267578125 C-7.185999870300293,-56.042999267578125 7.185999870300293,-56.042999267578125 7.185999870300293,-56.042999267578125 C7.185999870300293,-56.042999267578125 7.185999870300293,56.042999267578125 7.185999870300293,56.042999267578125z"></path></g></g><g transform="matrix(1,0,0,0.4317325949668884,197.16099548339844,323.78253173828125)" opacity="1" style="display: block;"><g opacity="1" transform="matrix(1,0,0,1,7.435999870300293,56.292999267578125)"><path fill="rgb(91,91,153)" fill-opacity="1" d=" M7.185999870300293,56.042999267578125 C7.185999870300293,56.042999267578125 -7.185999870300293,56.042999267578125 -7.185999870300293,56.042999267578125 C-7.185999870300293,56.042999267578125 -7.185999870300293,-56.042999267578125 -7.185999870300293,-56.042999267578125 C-7.185999870300293,-56.042999267578125 7.185999870300293,-56.042999267578125 7.185999870300293,-56.042999267578125 C7.185999870300293,-56.042999267578125 7.185999870300293,56.042999267578125 7.185999870300293,56.042999267578125z"></path></g></g><g clip-path="url(#__lottie_element_869)" transform="matrix(-1,0,0,-1,654,744)" opacity="1" style="display: block;"><g transform="matrix(1,0,0,0.4226137101650238,304.9109802246094,324.80877685546875)" opacity="1" style="display: block;"><g opacity="1" transform="matrix(1,0,0,1,7.435999870300293,56.292999267578125)"><path fill="rgb(91,91,153)" fill-opacity="1" d=" M7.185999870300293,56.042999267578125 C7.185999870300293,56.042999267578125 -7.185999870300293,56.042999267578125 -7.185999870300293,56.042999267578125 C-7.185999870300293,56.042999267578125 -7.185999870300293,-56.042999267578125 -7.185999870300293,-56.042999267578125 C-7.185999870300293,-56.042999267578125 7.185999870300293,-56.042999267578125 7.185999870300293,-56.042999267578125 C7.185999870300293,-56.042999267578125 7.185999870300293,56.042999267578125 7.185999870300293,56.042999267578125z"></path></g></g><g transform="matrix(1,0,0,0.5148675441741943,283.6609802246094,314.42626953125)" opacity="1" style="display: block;"><g opacity="1" transform="matrix(1,0,0,1,7.435999870300293,56.292999267578125)"><path fill="rgb(91,91,153)" fill-opacity="1" d=" M7.185999870300293,56.042999267578125 C7.185999870300293,56.042999267578125 -7.185999870300293,56.042999267578125 -7.185999870300293,56.042999267578125 C-7.185999870300293,56.042999267578125 -7.185999870300293,-56.042999267578125 -7.185999870300293,-56.042999267578125 C-7.185999870300293,-56.042999267578125 7.185999870300293,-56.042999267578125 7.185999870300293,-56.042999267578125 C7.185999870300293,-56.042999267578125 7.185999870300293,56.042999267578125 7.185999870300293,56.042999267578125z"></path></g></g><g transform="matrix(1,0,0,0.42533549666404724,261.9109802246094,324.5024719238281)" opacity="1" style="display: block;"><g opacity="1" transform="matrix(1,0,0,1,7.435999870300293,56.292999267578125)"><path fill="rgb(91,91,153)" fill-opacity="1" d=" M7.185999870300293,56.042999267578125 C7.185999870300293,56.042999267578125 -7.185999870300293,56.042999267578125 -7.185999870300293,56.042999267578125 C-7.185999870300293,56.042999267578125 -7.185999870300293,-56.042999267578125 -7.185999870300293,-56.042999267578125 C-7.185999870300293,-56.042999267578125 7.185999870300293,-56.042999267578125 7.185999870300293,-56.042999267578125 C7.185999870300293,-56.042999267578125 7.185999870300293,56.042999267578125 7.185999870300293,56.042999267578125z"></path></g></g><g transform="matrix(1,0,0,0.6843112707138062,240.16099548339844,295.3565673828125)" opacity="1" style="display: block;"><g opacity="1" transform="matrix(1,0,0,1,7.435999870300293,56.292999267578125)"><path fill="rgb(91,91,153)" fill-opacity="1" d=" M7.185999870300293,56.042999267578125 C7.185999870300293,56.042999267578125 -7.185999870300293,56.042999267578125 -7.185999870300293,56.042999267578125 C-7.185999870300293,56.042999267578125 -7.185999870300293,-56.042999267578125 -7.185999870300293,-56.042999267578125 C-7.185999870300293,-56.042999267578125 7.185999870300293,-56.042999267578125 7.185999870300293,-56.042999267578125 C7.185999870300293,-56.042999267578125 7.185999870300293,56.042999267578125 7.185999870300293,56.042999267578125z"></path></g></g><g transform="matrix(1,0,0,0.5337802767753601,218.91099548339844,312.2977600097656)" opacity="1" style="display: block;"><g opacity="1" transform="matrix(1,0,0,1,7.435999870300293,56.292999267578125)"><path fill="rgb(91,91,153)" fill-opacity="1" d=" M7.185999870300293,56.042999267578125 C7.185999870300293,56.042999267578125 -7.185999870300293,56.042999267578125 -7.185999870300293,56.042999267578125 C-7.185999870300293,56.042999267578125 -7.185999870300293,-56.042999267578125 -7.185999870300293,-56.042999267578125 C-7.185999870300293,-56.042999267578125 7.185999870300293,-56.042999267578125 7.185999870300293,-56.042999267578125 C7.185999870300293,-56.042999267578125 7.185999870300293,56.042999267578125 7.185999870300293,56.042999267578125z"></path></g></g><g transform="matrix(1,0,0,0.4317325949668884,197.16099548339844,323.78253173828125)" opacity="1" style="display: block;"><g opacity="1" transform="matrix(1,0,0,1,7.435999870300293,56.292999267578125)"><path fill="rgb(91,91,153)" fill-opacity="1" d=" M7.185999870300293,56.042999267578125 C7.185999870300293,56.042999267578125 -7.185999870300293,56.042999267578125 -7.185999870300293,56.042999267578125 C-7.185999870300293,56.042999267578125 -7.185999870300293,-56.042999267578125 -7.185999870300293,-56.042999267578125 C-7.185999870300293,-56.042999267578125 7.185999870300293,-56.042999267578125 7.185999870300293,-56.042999267578125 C7.185999870300293,-56.042999267578125 7.185999870300293,56.042999267578125 7.185999870300293,56.042999267578125z"></path></g></g></g></g><g transform="matrix(1,0,0,1,123.33901977539062,346.89697265625)" opacity="1" style="display: block;"><g opacity="1" transform="matrix(1,0,0,1,349.15899658203125,193.49400329589844)"><path fill="rgb(50,50,127)" fill-opacity="1" d=" M286.0249938964844,193.24400329589844 C286.0249938964844,193.24400329589844 -286.0249938964844,193.24400329589844 -286.0249938964844,193.24400329589844 C-286.0249938964844,193.24400329589844 -286.0249938964844,-174.33299255371094 -286.0249938964844,-174.33299255371094 C-286.0249938964844,-184.75999450683594 -277.5419921875,-193.24400329589844 -267.114013671875,-193.24400329589844 C-267.114013671875,-193.24400329589844 267.1130065917969,-193.24400329589844 267.1130065917969,-193.24400329589844 C277.5409851074219,-193.24400329589844 286.0249938964844,-184.75999450683594 286.0249938964844,-174.33299255371094 C286.0249938964844,-174.33299255371094 286.0249938964844,193.24400329589844 286.0249938964844,193.24400329589844z M-284.8420104980469,192.06199645996094 C-284.8420104980469,192.06199645996094 284.8420104980469,192.06199645996094 284.8420104980469,192.06199645996094 C284.8420104980469,192.06199645996094 284.8420104980469,-174.33299255371094 284.8420104980469,-174.33299255371094 C284.8420104980469,-184.10899353027344 276.8900146484375,-192.06199645996094 267.1130065917969,-192.06199645996094 C267.1130065917969,-192.06199645996094 -267.114013671875,-192.06199645996094 -267.114013671875,-192.06199645996094 C-276.8909912109375,-192.06199645996094 -284.8420104980469,-184.10899353027344 -284.8420104980469,-174.33299255371094 C-284.8420104980469,-174.33299255371094 -284.8420104980469,192.06199645996094 -284.8420104980469,192.06199645996094z"></path><g opacity="1" transform="matrix(1,0,0,1,0,0)"></g><g opacity="1" transform="matrix(1,0,0,1,0,0)"><path stroke-linecap="butt" stroke-linejoin="miter" fill-opacity="0" stroke-miterlimit="4" stroke="rgb(39,35,86)" stroke-opacity="1" stroke-width="3" d="M0 0"></path></g></g><g opacity="1" transform="matrix(1,0,0,1,349.1600036621094,195.66099548339844)"><path fill="rgb(50,50,127)" fill-opacity="1" d=" M262.2829895019531,170.98399353027344 C262.2829895019531,170.98399353027344 -262.28399658203125,170.98399353027344 -262.28399658203125,170.98399353027344 C-267.0060119628906,170.98399353027344 -270.8489990234375,167.14199829101562 -270.8489990234375,162.41900634765625 C-270.8489990234375,162.41900634765625 -270.8489990234375,-162.4199981689453 -270.8489990234375,-162.4199981689453 C-270.8489990234375,-167.14100646972656 -267.0060119628906,-170.98399353027344 -262.28399658203125,-170.98399353027344 C-262.28399658203125,-170.98399353027344 262.2829895019531,-170.98399353027344 262.2829895019531,-170.98399353027344 C267.0060119628906,-170.98399353027344 270.8489990234375,-167.14100646972656 270.8489990234375,-162.4199981689453 C270.8489990234375,-162.4199981689453 270.8489990234375,162.41900634765625 270.8489990234375,162.41900634765625 C270.8489990234375,167.14199829101562 267.0060119628906,170.98399353027344 262.2829895019531,170.98399353027344z M-262.28399658203125,-169.80299377441406 C-266.3550109863281,-169.80299377441406 -269.6669921875,-166.49000549316406 -269.6669921875,-162.4199981689453 C-269.6669921875,-162.4199981689453 -269.6669921875,162.41900634765625 -269.6669921875,162.41900634765625 C-269.6669921875,166.48899841308594 -266.3550109863281,169.80299377441406 -262.28399658203125,169.80299377441406 C-262.28399658203125,169.80299377441406 262.2829895019531,169.80299377441406 262.2829895019531,169.80299377441406 C266.3529968261719,169.80299377441406 269.6669921875,166.48899841308594 269.6669921875,162.41900634765625 C269.6669921875,162.41900634765625 269.6669921875,-162.4199981689453 269.6669921875,-162.4199981689453 C269.6669921875,-166.49000549316406 266.3529968261719,-169.80299377441406 262.2829895019531,-169.80299377441406 C262.2829895019531,-169.80299377441406 -262.28399658203125,-169.80299377441406 -262.28399658203125,-169.80299377441406z"></path><g opacity="1" transform="matrix(1,0,0,1,0,0)"></g></g><g opacity="1" transform="matrix(1,0,0,1,349.15899658203125,14.013999938964844)"><path fill="rgb(50,50,127)" fill-opacity="1" d=" M0,4.308000087738037 C-2.375,4.308000087738037 -4.307000160217285,2.375 -4.307000160217285,-0.0010000000474974513 C-4.307000160217285,-2.375999927520752 -2.375,-4.308000087738037 0,-4.308000087738037 C2.375999927520752,-4.308000087738037 4.307000160217285,-2.375999927520752 4.307000160217285,-0.0010000000474974513 C4.307000160217285,2.375 2.375999927520752,4.308000087738037 0,4.308000087738037z M0,-3.125999927520752 C-1.7239999771118164,-3.125999927520752 -3.125,-1.7239999771118164 -3.125,-0.0010000000474974513 C-3.125,1.7239999771118164 -1.7239999771118164,3.125999927520752 0,3.125999927520752 C1.725000023841858,3.125999927520752 3.125,1.7239999771118164 3.125,-0.0010000000474974513 C3.125,-1.7239999771118164 1.725000023841858,-3.125999927520752 0,-3.125999927520752z"></path><g opacity="1" transform="matrix(1,0,0,1,0,0)"></g></g><g opacity="1" transform="matrix(1,0,0,1,350.3429870605469,394.8139953613281)"><path fill="rgb(50,50,127)" fill-opacity="1" d=" M317.9339904785156,9.258000373840332 C317.9339904785156,9.258000373840332 -317.9330139160156,9.258000373840332 -317.9330139160156,9.258000373840332 C-327.2590026855469,9.258000373840332 -350.0929870605469,1.4989999532699585 -350.0929870605469,-8.666999816894531 C-350.0929870605469,-8.666999816894531 -350.0929870605469,-9.258000373840332 -350.0929870605469,-9.258000373840332 C-350.0929870605469,-9.258000373840332 350.0929870605469,-9.258000373840332 350.0929870605469,-9.258000373840332 C350.0929870605469,-9.258000373840332 350.0929870605469,-8.666999816894531 350.0929870605469,-8.666999816894531 C350.0929870605469,1.4989999532699585 327.260009765625,9.258000373840332 317.9339904785156,9.258000373840332z M-348.8800048828125,-8.076000213623047 C-347.9429931640625,0.7950000166893005 -326.2349853515625,8.076000213623047 -317.9330139160156,8.076000213623047 C-317.9330139160156,8.076000213623047 317.9339904785156,8.076000213623047 317.9339904785156,8.076000213623047 C326.2349853515625,8.076000213623047 347.9440002441406,0.7950000166893005 348.87799072265625,-8.076000213623047 C348.87799072265625,-8.076000213623047 -348.8800048828125,-8.076000213623047 -348.8800048828125,-8.076000213623047z"></path><g opacity="1" transform="matrix(1,0,0,1,0,0)"></g></g><g opacity="1" transform="matrix(1,0,0,1,350.4880065917969,389.5450134277344)"><path fill="rgb(50,50,127)" fill-opacity="1" d=" M52.448001861572266,3.989000082015991 C52.448001861572266,3.989000082015991 -52.448001861572266,3.989000082015991 -52.448001861572266,3.989000082015991 C-56.52000045776367,3.989000082015991 -59.834999084472656,0.6740000247955322 -59.834999084472656,-3.3980000019073486 C-59.834999084472656,-3.3980000019073486 -59.834999084472656,-3.989000082015991 -59.834999084472656,-3.989000082015991 C-59.834999084472656,-3.989000082015991 59.834999084472656,-3.989000082015991 59.834999084472656,-3.989000082015991 C59.834999084472656,-3.989000082015991 59.834999084472656,-3.3980000019073486 59.834999084472656,-3.3980000019073486 C59.834999084472656,0.6740000247955322 56.51900100708008,3.989000082015991 52.448001861572266,3.989000082015991z M-58.625,-2.806999921798706 C-58.32699966430664,0.33899998664855957 -55.66999816894531,2.806999921798706 -52.448001861572266,2.806999921798706 C-52.448001861572266,2.806999921798706 52.448001861572266,2.806999921798706 52.448001861572266,2.806999921798706 C55.66999816894531,2.806999921798706 58.32699966430664,0.33899998664855957 58.625,-2.806999921798706 C58.625,-2.806999921798706 -58.625,-2.806999921798706 -58.625,-2.806999921798706z"></path><g opacity="1" transform="matrix(1,0,0,1,0,0)"></g></g><g opacity="1" transform="matrix(1,0,0,1,0,0)"><path stroke-linecap="butt" stroke-linejoin="miter" fill-opacity="0" stroke-miterlimit="4" stroke="rgb(39,35,86)" stroke-opacity="1" stroke-width="3" d="M0 0"></path></g><g opacity="1" transform="matrix(1,0,0,1,0,0)"><path stroke-linecap="butt" stroke-linejoin="miter" fill-opacity="0" stroke-miterlimit="4" stroke="rgb(39,35,86)" stroke-opacity="1" stroke-width="3" d="M0 0"></path></g></g><g clip-path="url(#__lottie_element_834)" transform="matrix(1,0,0,1,0,0)" opacity="1" style="display: block;"><g transform="matrix(1,0,0,1,137.17298889160156,442.0420227050781)" opacity="1" style="display: block;"><g opacity="1" transform="matrix(1,0,0,1,175.1739959716797,108.1709976196289)"><path fill="rgb(232,232,232)" fill-opacity="1" d=" M174.9239959716797,-94.3290023803711 C174.9239959716797,-94.3290023803711 174.9239959716797,94.3290023803711 174.9239959716797,94.3290023803711 C174.9239959716797,101.84600067138672 168.8489990234375,107.9209976196289 161.33200073242188,107.9209976196289 C161.33200073242188,107.9209976196289 -161.33200073242188,107.9209976196289 -161.33200073242188,107.9209976196289 C-168.8489990234375,107.9209976196289 -174.9239959716797,101.84600067138672 -174.9239959716797,94.3290023803711 C-174.9239959716797,94.3290023803711 -174.9239959716797,-94.3290023803711 -174.9239959716797,-94.3290023803711 C-174.9239959716797,-101.84600067138672 -168.8489990234375,-107.9209976196289 -161.33200073242188,-107.9209976196289 C-161.33200073242188,-107.9209976196289 161.33200073242188,-107.9209976196289 161.33200073242188,-107.9209976196289 C168.8489990234375,-107.9209976196289 174.9239959716797,-101.84600067138672 174.9239959716797,-94.3290023803711z"></path></g><g opacity="1" transform="matrix(1,0,0,1,175.1739959716797,11.928000450134277)"><path fill="rgb(66,244,188)" fill-opacity="1" d=" M174.9239959716797,1.9140000343322754 C174.9239959716797,1.9140000343322754 174.9239959716797,11.677000045776367 174.9239959716797,11.677000045776367 C174.9239959716797,11.677000045776367 -174.9239959716797,11.677000045776367 -174.9239959716797,11.677000045776367 C-174.9239959716797,11.677000045776367 -174.9239959716797,1.9140000343322754 -174.9239959716797,1.9140000343322754 C-174.9239959716797,-5.603000164031982 -168.8489990234375,-11.677000045776367 -161.33200073242188,-11.677000045776367 C-161.33200073242188,-11.677000045776367 161.33200073242188,-11.677000045776367 161.33200073242188,-11.677000045776367 C168.8489990234375,-11.677000045776367 174.9239959716797,-5.603000164031982 174.9239959716797,1.9140000343322754z"></path></g><g opacity="1" transform="matrix(1,0,0,1,297.1080017089844,11.927000045776367)"><path fill="rgb(255,255,255)" fill-opacity="1" d=" M5.013999938964844,0 C5.013999938964844,2.7690000534057617 2.7699999809265137,5.013999938964844 0.0010000000474974513,5.013999938964844 C-2.7690000534057617,5.013999938964844 -5.013999938964844,2.7690000534057617 -5.013999938964844,0 C-5.013999938964844,-2.7690000534057617 -2.7690000534057617,-5.013999938964844 0.0010000000474974513,-5.013999938964844 C2.7699999809265137,-5.013999938964844 5.013999938964844,-2.7690000534057617 5.013999938964844,0z"></path></g><g opacity="1" transform="matrix(1,0,0,1,312.4729919433594,11.927000045776367)"><path fill="rgb(255,255,255)" fill-opacity="1" d=" M5.014999866485596,0 C5.014999866485596,2.7690000534057617 2.7690000534057617,5.013999938964844 0,5.013999938964844 C-2.7699999809265137,5.013999938964844 -5.014999866485596,2.7690000534057617 -5.014999866485596,0 C-5.014999866485596,-2.7690000534057617 -2.7699999809265137,-5.013999938964844 0,-5.013999938964844 C2.7690000534057617,-5.013999938964844 5.014999866485596,-2.7690000534057617 5.014999866485596,0z"></path></g><g opacity="1" transform="matrix(1,0,0,1,327.8380126953125,11.927000045776367)"><path fill="rgb(255,255,255)" fill-opacity="1" d=" M5.013999938964844,0 C5.013999938964844,2.7690000534057617 2.7699999809265137,5.013999938964844 0.0010000000474974513,5.013999938964844 C-2.7690000534057617,5.013999938964844 -5.013999938964844,2.7690000534057617 -5.013999938964844,0 C-5.013999938964844,-2.7690000534057617 -2.7690000534057617,-5.013999938964844 0.0010000000474974513,-5.013999938964844 C2.7699999809265137,-5.013999938964844 5.013999938964844,-2.7690000534057617 5.013999938964844,0z"></path></g></g><g transform="matrix(0.7673353552818298,0,0,1,311.6890563964844,590.5989990234375)" opacity="1" style="display: block;"><g opacity="1" transform="matrix(1,0,0,1,53.28900146484375,1.1369999647140503)"><path fill="rgb(50,50,127)" fill-opacity="1" d=" M53.03900146484375,0.8870000243186951 C53.03900146484375,0.8870000243186951 -53.03900146484375,0.8870000243186951 -53.03900146484375,0.8870000243186951 C-53.03900146484375,0.8870000243186951 -53.03900146484375,-0.8870000243186951 -53.03900146484375,-0.8870000243186951 C-53.03900146484375,-0.8870000243186951 53.03900146484375,-0.8870000243186951 53.03900146484375,-0.8870000243186951 C53.03900146484375,-0.8870000243186951 53.03900146484375,0.8870000243186951 53.03900146484375,0.8870000243186951z"></path></g></g><g transform="matrix(0.805799663066864,0,0,1,311.68756103515625,562.9739990234375)" opacity="1" style="display: block;"><g opacity="1" transform="matrix(1,0,0,1,53.28900146484375,1.1369999647140503)"><path fill="rgb(50,50,127)" fill-opacity="1" d=" M53.03900146484375,0.8870000243186951 C53.03900146484375,0.8870000243186951 -53.03900146484375,0.8870000243186951 -53.03900146484375,0.8870000243186951 C-53.03900146484375,0.8870000243186951 -53.03900146484375,-0.8870000243186951 -53.03900146484375,-0.8870000243186951 C-53.03900146484375,-0.8870000243186951 53.03900146484375,-0.8870000243186951 53.03900146484375,-0.8870000243186951 C53.03900146484375,-0.8870000243186951 53.03900146484375,0.8870000243186951 53.03900146484375,0.8870000243186951z"></path></g></g><g transform="matrix(0.7162078619003296,0,0,1,311.6910705566406,550.5989990234375)" opacity="1" style="display: block;"><g opacity="1" transform="matrix(1,0,0,1,53.28900146484375,1.1369999647140503)"><path fill="rgb(50,50,127)" fill-opacity="1" d=" M53.03900146484375,0.8870000243186951 C53.03900146484375,0.8870000243186951 -53.03900146484375,0.8870000243186951 -53.03900146484375,0.8870000243186951 C-53.03900146484375,0.8870000243186951 -53.03900146484375,-0.8870000243186951 -53.03900146484375,-0.8870000243186951 C-53.03900146484375,-0.8870000243186951 53.03900146484375,-0.8870000243186951 53.03900146484375,-0.8870000243186951 C53.03900146484375,-0.8870000243186951 53.03900146484375,0.8870000243186951 53.03900146484375,0.8870000243186951z"></path></g></g><g transform="matrix(0.7162078619003296,0,0,1,311.6910705566406,600.5989990234375)" opacity="1" style="display: block;"><g opacity="1" transform="matrix(1,0,0,1,53.28900146484375,1.1369999647140503)"><path fill="rgb(50,50,127)" fill-opacity="1" d=" M53.03900146484375,0.8870000243186951 C53.03900146484375,0.8870000243186951 -53.03900146484375,0.8870000243186951 -53.03900146484375,0.8870000243186951 C-53.03900146484375,0.8870000243186951 -53.03900146484375,-0.8870000243186951 -53.03900146484375,-0.8870000243186951 C-53.03900146484375,-0.8870000243186951 53.03900146484375,-0.8870000243186951 53.03900146484375,-0.8870000243186951 C53.03900146484375,-0.8870000243186951 53.03900146484375,0.8870000243186951 53.03900146484375,0.8870000243186951z"></path></g></g><g transform="matrix(2.390000104904175,0,0,2.390000104904175,-605.99951171875,566.9990844726562)" opacity="1" style="display: block;"><g opacity="1" transform="matrix(1,0,0,1,345.36199951171875,-3.1489999294281006)"><path stroke-linecap="butt" stroke-linejoin="miter" fill-opacity="0" stroke-miterlimit="4" stroke="rgb(64,236,182)" stroke-opacity="1" stroke-width="11" d=" M0,-20.16200065612793 C11.127408027648926,-20.16200065612793 20.16200065612793,-11.127408027648926 20.16200065612793,0 C20.16200065612793,11.127408027648926 11.127408027648926,20.16200065612793 0,20.16200065612793 C-11.127408027648926,20.16200065612793 -20.16200065612793,11.127408027648926 -20.16200065612793,0 C-20.16200065612793,-10.621000289916992 -11.930999755859375,-19.334999084472656 -1.50600004196167,-20.106000900268555"></path></g><g opacity="1" transform="matrix(1,0,0,1,345.36199951171875,-3.1489999294281006)"><path stroke-linecap="butt" stroke-linejoin="miter" fill-opacity="0" stroke-miterlimit="4" stroke="rgb(93,20,230)" stroke-opacity="1" stroke-width="11" d=" M0,-20.16200065612793 C3.9820001125335693,-20.16200065612793 7.696000099182129,-19.0049991607666 10.824000358581543,-17.009000778198242"></path></g></g><g transform="matrix(0.7651006579399109,0,0,1,311.68914794921875,540.2239990234375)" opacity="1" style="display: block;"><g opacity="1" transform="matrix(1,0,0,1,53.28900146484375,1.1369999647140503)"><path fill="rgb(50,50,127)" fill-opacity="1" d=" M53.03900146484375,0.8870000243186951 C53.03900146484375,0.8870000243186951 -53.03900146484375,0.8870000243186951 -53.03900146484375,0.8870000243186951 C-53.03900146484375,0.8870000243186951 -53.03900146484375,-0.8870000243186951 -53.03900146484375,-0.8870000243186951 C-53.03900146484375,-0.8870000243186951 53.03900146484375,-0.8870000243186951 53.03900146484375,-0.8870000243186951 C53.03900146484375,-0.8870000243186951 53.03900146484375,0.8870000243186951 53.03900146484375,0.8870000243186951z"></path></g></g><g filter="url(#__lottie_element_839)" transform="matrix(1,0,0,1,311.6809997558594,515.656005859375)" opacity="1" style="display: block;"><g opacity="1" transform="matrix(1,0,0,1,23.011999130249023,4.091000080108643)"><path fill="rgb(50,50,127)" fill-opacity="1" d=" M22.761999130249023,3.8410000801086426 C22.761999130249023,3.8410000801086426 -22.761999130249023,3.8410000801086426 -22.761999130249023,3.8410000801086426 C-22.761999130249023,3.8410000801086426 -22.761999130249023,-3.8410000801086426 -22.761999130249023,-3.8410000801086426 C-22.761999130249023,-3.8410000801086426 22.761999130249023,-3.8410000801086426 22.761999130249023,-3.8410000801086426 C22.761999130249023,-3.8410000801086426 22.761999130249023,3.8410000801086426 22.761999130249023,3.8410000801086426z"></path></g></g></g><g clip-path="url(#__lottie_element_821)" transform="matrix(1,0,0,1,0,0)" opacity="1" style="display: block;"><g transform="matrix(1,0,0,1,496.0260009765625,252.82199096679688)" opacity="1" style="display: block;"><g opacity="1" transform="matrix(1,0,0,1,119.02799987792969,73.53099822998047)"><path fill="rgb(233,229,246)" fill-opacity="1" d=" M118.77799987792969,-64.052001953125 C118.77799987792969,-64.052001953125 118.77799987792969,64.052001953125 118.77799987792969,64.052001953125 C118.77799987792969,69.15599822998047 114.65299987792969,73.28099822998047 109.54900360107422,73.28099822998047 C109.54900360107422,73.28099822998047 -109.5479965209961,73.28099822998047 -109.5479965209961,73.28099822998047 C-114.6520004272461,73.28099822998047 -118.77799987792969,69.15599822998047 -118.77799987792969,64.052001953125 C-118.77799987792969,64.052001953125 -118.77799987792969,-64.052001953125 -118.77799987792969,-64.052001953125 C-118.77799987792969,-69.15599822998047 -114.6520004272461,-73.28099822998047 -109.5479965209961,-73.28099822998047 C-109.5479965209961,-73.28099822998047 109.54900360107422,-73.28099822998047 109.54900360107422,-73.28099822998047 C114.65299987792969,-73.28099822998047 118.77799987792969,-69.15599822998047 118.77799987792969,-64.052001953125z"></path></g><g opacity="1" transform="matrix(1,0,0,1,119.02799987792969,8.178999900817871)"><path fill="rgb(66,244,188)" fill-opacity="1" d=" M118.77799987792969,1.2999999523162842 C118.77799987792969,1.2999999523162842 118.77799987792969,7.928999900817871 118.77799987792969,7.928999900817871 C118.77799987792969,7.928999900817871 -118.77799987792969,7.928999900817871 -118.77799987792969,7.928999900817871 C-118.77799987792969,7.928999900817871 -118.77799987792969,1.2999999523162842 -118.77799987792969,1.2999999523162842 C-118.77799987792969,-3.803999900817871 -114.6520004272461,-7.928999900817871 -109.5479965209961,-7.928999900817871 C-109.5479965209961,-7.928999900817871 109.54900360107422,-7.928999900817871 109.54900360107422,-7.928999900817871 C114.65299987792969,-7.928999900817871 118.77799987792969,-3.803999900817871 118.77799987792969,1.2999999523162842z"></path></g><g opacity="1" transform="matrix(1,0,0,1,201.8249969482422,8.178999900817871)"><path fill="rgb(255,255,255)" fill-opacity="1" d=" M3.4049999713897705,0 C3.4049999713897705,1.8799999952316284 1.8799999952316284,3.4049999713897705 0,3.4049999713897705 C-1.88100004196167,3.4049999713897705 -3.4049999713897705,1.8799999952316284 -3.4049999713897705,0 C-3.4049999713897705,-1.88100004196167 -1.88100004196167,-3.4049999713897705 0,-3.4049999713897705 C1.8799999952316284,-3.4049999713897705 3.4049999713897705,-1.88100004196167 3.4049999713897705,0z"></path></g><g opacity="1" transform="matrix(1,0,0,1,212.25799560546875,8.178999900817871)"><path fill="rgb(255,255,255)" fill-opacity="1" d=" M3.4049999713897705,0 C3.4049999713897705,1.8799999952316284 1.88100004196167,3.4049999713897705 0,3.4049999713897705 C-1.88100004196167,3.4049999713897705 -3.4049999713897705,1.8799999952316284 -3.4049999713897705,0 C-3.4049999713897705,-1.88100004196167 -1.88100004196167,-3.4049999713897705 0,-3.4049999713897705 C1.88100004196167,-3.4049999713897705 3.4049999713897705,-1.88100004196167 3.4049999713897705,0z"></path></g><g opacity="1" transform="matrix(1,0,0,1,222.6909942626953,8.178999900817871)"><path fill="rgb(255,255,255)" fill-opacity="1" d=" M3.4049999713897705,0 C3.4049999713897705,1.8799999952316284 1.88100004196167,3.4049999713897705 0,3.4049999713897705 C-1.8799999952316284,3.4049999713897705 -3.4049999713897705,1.8799999952316284 -3.4049999713897705,0 C-3.4049999713897705,-1.88100004196167 -1.8799999952316284,-3.4049999713897705 0,-3.4049999713897705 C1.88100004196167,-3.4049999713897705 3.4049999713897705,-1.88100004196167 3.4049999713897705,0z"></path></g></g><g transform="matrix(1,0,0,1,540,540)" opacity="1" style="display: block;"><g opacity="1" transform="matrix(1,0,0,1,0,0)"><path fill="rgb(93,20,230)" fill-opacity="1" d=" M-31,-218.8144073486328 C-31,-218.8144073486328 -30.5,-205 -30.5,-205 C-30.5,-205 -30.5,-154 -30.5,-154 C-30.5,-154 180.5,-153 180.5,-153 C180.5,-153 179.5,-243.88101196289062 179.5,-243.88101196289062 C179.5,-243.88101196289062 123.05567932128906,-209.6168212890625 105.10589599609375,-211.88645935058594 C94.05567932128906,-214.15611267089844 98.83163452148438,-236.3241424560547 67.21724700927734,-235.61898803710938 C43.92156219482422,-235.1365966796875 54.66001510620117,-197.79544067382812 30.106033325195312,-198.52516174316406 C16.2961368560791,-197.9448699951172 14.00149154663086,-232.56289672851562 -9.33078670501709,-230.14846801757812 C-22.699172973632812,-229.0288543701172 -31,-218.8144073486328 -31,-218.8144073486328z"></path><path stroke-linecap="butt" stroke-linejoin="miter" fill-opacity="0" stroke-miterlimit="4" stroke="rgb(64,236,182)" stroke-opacity="1" stroke-width="0" d=" M-31,-218.8144073486328 C-31,-218.8144073486328 -30.5,-205 -30.5,-205 C-30.5,-205 -30.5,-154 -30.5,-154 C-30.5,-154 180.5,-153 180.5,-153 C180.5,-153 179.5,-243.88101196289062 179.5,-243.88101196289062 C179.5,-243.88101196289062 123.05567932128906,-209.6168212890625 105.10589599609375,-211.88645935058594 C94.05567932128906,-214.15611267089844 98.83163452148438,-236.3241424560547 67.21724700927734,-235.61898803710938 C43.92156219482422,-235.1365966796875 54.66001510620117,-197.79544067382812 30.106033325195312,-198.52516174316406 C16.2961368560791,-197.9448699951172 14.00149154663086,-232.56289672851562 -9.33078670501709,-230.14846801757812 C-22.699172973632812,-229.0288543701172 -31,-218.8144073486328 -31,-218.8144073486328z"></path></g></g><g transform="matrix(1,0,0,1,540,540)" opacity="1" style="display: block;"><g opacity="1" transform="matrix(1,0,0,1,0,0)"><path stroke-linecap="butt" stroke-linejoin="miter" fill-opacity="0" stroke-miterlimit="4" stroke="rgb(64,236,182)" stroke-opacity="1" stroke-width="3" d=" M-30,-235.4534149169922 C-30,-235.4534149169922 -13.728541374206543,-202.3521728515625 20.17656135559082,-204.1953125 C36.70209884643555,-205.05819702148438 44.26327896118164,-227.65628051757812 62.29866027832031,-227.6834716796875 C94.43535614013672,-226.8541259765625 79.07913208007812,-251.4176788330078 121.53956604003906,-248.77728271484375 C167.0766143798828,-245.81089782714844 179,-239 179,-239"></path></g></g></g><g clip-path="url(#__lottie_element_760)" transform="matrix(1,0,0,1,0,0)" opacity="1" style="display: block;"><g transform="matrix(1,0,0,1,844.8289794921875,470.21002197265625)" opacity="1" style="display: block;"><g opacity="1" transform="matrix(1,0,0,1,66.93000030517578,140.5050048828125)"><path fill="rgb(50,50,127)" fill-opacity="1" d=" M53.715999603271484,140.25399780273438 C53.715999603271484,140.25399780273438 -53.715999603271484,140.25399780273438 -53.715999603271484,140.25399780273438 C-60.8650016784668,140.25399780273438 -66.68000030517578,134.43899536132812 -66.68000030517578,127.29000091552734 C-66.68000030517578,127.29000091552734 -66.68000030517578,-127.29000091552734 -66.68000030517578,-127.29000091552734 C-66.68000030517578,-134.43800354003906 -60.8650016784668,-140.25399780273438 -53.715999603271484,-140.25399780273438 C-53.715999603271484,-140.25399780273438 53.715999603271484,-140.25399780273438 53.715999603271484,-140.25399780273438 C60.8650016784668,-140.25399780273438 66.68000030517578,-134.43800354003906 66.68000030517578,-127.29000091552734 C66.68000030517578,-127.29000091552734 66.68000030517578,127.29000091552734 66.68000030517578,127.29000091552734 C66.68000030517578,134.43899536132812 60.8650016784668,140.25399780273438 53.715999603271484,140.25399780273438z M-53.715999603271484,-139.072998046875 C-60.21200180053711,-139.072998046875 -65.49800109863281,-133.78700256347656 -65.49800109863281,-127.29000091552734 C-65.49800109863281,-127.29000091552734 -65.49800109863281,127.29000091552734 -65.49800109863281,127.29000091552734 C-65.49800109863281,133.78500366210938 -60.21200180053711,139.07200622558594 -53.715999603271484,139.07200622558594 C-53.715999603271484,139.07200622558594 53.715999603271484,139.07200622558594 53.715999603271484,139.07200622558594 C60.21200180053711,139.07200622558594 65.4990005493164,133.78500366210938 65.4990005493164,127.29000091552734 C65.4990005493164,127.29000091552734 65.4990005493164,-127.29000091552734 65.4990005493164,-127.29000091552734 C65.4990005493164,-133.78700256347656 60.21200180053711,-139.072998046875 53.715999603271484,-139.072998046875 C53.715999603271484,-139.072998046875 -53.715999603271484,-139.072998046875 -53.715999603271484,-139.072998046875z"></path><g opacity="1" transform="matrix(1,0,0,1,0,0)"></g></g><g opacity="1" transform="matrix(1,0,0,1,66.93000030517578,140.5050048828125)"><path fill="rgb(50,50,127)" fill-opacity="1" d=" M54.000999450683594,125.28299713134766 C54.000999450683594,125.28299713134766 -53.99700164794922,125.28299713134766 -53.99700164794922,125.28299713134766 C-58.93899917602539,125.28299713134766 -62.96200180053711,121.26200103759766 -62.96200180053711,116.31900024414062 C-62.96200180053711,116.31900024414062 -62.96200180053711,-116.3219985961914 -62.96200180053711,-116.3219985961914 C-62.96200180053711,-121.26399993896484 -58.93899917602539,-125.28299713134766 -53.99700164794922,-125.28299713134766 C-53.99700164794922,-125.28299713134766 54.000999450683594,-125.28299713134766 54.000999450683594,-125.28299713134766 C58.94300079345703,-125.28299713134766 62.96200180053711,-121.26399993896484 62.96200180053711,-116.3219985961914 C62.96200180053711,-116.3219985961914 62.96200180053711,116.31900024414062 62.96200180053711,116.31900024414062 C62.96200180053711,121.26200103759766 58.94300079345703,125.28299713134766 54.000999450683594,125.28299713134766z M-53.99700164794922,-124.10199737548828 C-58.28799819946289,-124.10199737548828 -61.779998779296875,-120.61199951171875 -61.779998779296875,-116.3219985961914 C-61.779998779296875,-116.3219985961914 -61.779998779296875,116.31900024414062 -61.779998779296875,116.31900024414062 C-61.779998779296875,120.61100006103516 -58.28799819946289,124.10099792480469 -53.99700164794922,124.10099792480469 C-53.99700164794922,124.10099792480469 54.000999450683594,124.10099792480469 54.000999450683594,124.10099792480469 C58.290000915527344,124.10099792480469 61.779998779296875,120.61100006103516 61.779998779296875,116.31900024414062 C61.779998779296875,116.31900024414062 61.779998779296875,-116.3219985961914 61.779998779296875,-116.3219985961914 C61.779998779296875,-120.61199951171875 58.290000915527344,-124.10199737548828 54.000999450683594,-124.10199737548828 C54.000999450683594,-124.10199737548828 -53.99700164794922,-124.10199737548828 -53.99700164794922,-124.10199737548828z"></path><g opacity="1" transform="matrix(1,0,0,1,0,0)"></g></g><g opacity="1" transform="matrix(1,0,0,1,136.0970001220703,80.86599731445312)"><path fill="rgb(50,50,127)" fill-opacity="1" d=" M0.5910000205039978,17.28499984741211 C0.5910000205039978,17.28499984741211 -0.5910000205039978,17.28499984741211 -0.5910000205039978,17.28499984741211 C-0.5910000205039978,17.28499984741211 -0.5910000205039978,-17.28499984741211 -0.5910000205039978,-17.28499984741211 C-0.5910000205039978,-17.28499984741211 0.5910000205039978,-17.28499984741211 0.5910000205039978,-17.28499984741211 C0.5910000205039978,-17.28499984741211 0.5910000205039978,17.28499984741211 0.5910000205039978,17.28499984741211z"></path><g opacity="1" transform="matrix(1,0,0,1,0,0)"></g></g><g opacity="1" transform="matrix(1,0,0,1,136.0970001220703,119.20500183105469)"><path fill="rgb(50,50,127)" fill-opacity="1" d=" M0.5910000205039978,8.199000358581543 C0.5910000205039978,8.199000358581543 -0.5910000205039978,8.199000358581543 -0.5910000205039978,8.199000358581543 C-0.5910000205039978,8.199000358581543 -0.5910000205039978,-8.199000358581543 -0.5910000205039978,-8.199000358581543 C-0.5910000205039978,-8.199000358581543 0.5910000205039978,-8.199000358581543 0.5910000205039978,-8.199000358581543 C0.5910000205039978,-8.199000358581543 0.5910000205039978,8.199000358581543 0.5910000205039978,8.199000358581543z"></path><g opacity="1" transform="matrix(1,0,0,1,0,0)"></g></g><g opacity="1" transform="matrix(1,0,0,1,98.0510025024414,9.82699966430664)"><path fill="rgb(50,50,127)" fill-opacity="1" d=" M0,2.806999921798706 C-1.5490000247955322,2.806999921798706 -2.806999921798706,1.5479999780654907 -2.806999921798706,0 C-2.806999921798706,-1.5479999780654907 -1.5490000247955322,-2.806999921798706 0,-2.806999921798706 C1.5490000247955322,-2.806999921798706 2.806999921798706,-1.5479999780654907 2.806999921798706,0 C2.806999921798706,1.5479999780654907 1.5490000247955322,2.806999921798706 0,2.806999921798706z M0,-1.9210000038146973 C-1.059000015258789,-1.9210000038146973 -1.9199999570846558,-1.059999942779541 -1.9199999570846558,0 C-1.9199999570846558,1.059000015258789 -1.059000015258789,1.9199999570846558 0,1.9199999570846558 C1.059999942779541,1.9199999570846558 1.9210000038146973,1.059000015258789 1.9210000038146973,0 C1.9210000038146973,-1.059999942779541 1.059999942779541,-1.9210000038146973 0,-1.9210000038146973z"></path><g opacity="1" transform="matrix(1,0,0,1,0,0)"></g></g><g opacity="1" transform="matrix(1,0,0,1,66.93000030517578,9.82699966430664)"><path fill="rgb(50,50,127)" fill-opacity="1" d=" M8.246000289916992,1.996999979019165 C8.246000289916992,1.996999979019165 -8.246000289916992,1.996999979019165 -8.246000289916992,1.996999979019165 C-9.347000122070312,1.996999979019165 -10.243000030517578,1.1009999513626099 -10.243000030517578,0 C-10.243000030517578,-1.1019999980926514 -9.347000122070312,-1.996999979019165 -8.246000289916992,-1.996999979019165 C-8.246000289916992,-1.996999979019165 8.246000289916992,-1.996999979019165 8.246000289916992,-1.996999979019165 C9.347999572753906,-1.996999979019165 10.243000030517578,-1.1019999980926514 10.243000030517578,0 C10.243000030517578,1.1009999513626099 9.347999572753906,1.996999979019165 8.246000289916992,1.996999979019165z M-8.246000289916992,-1.1109999418258667 C-8.857999801635742,-1.1109999418258667 -9.357999801635742,-0.6119999885559082 -9.357999801635742,0 C-9.357999801635742,0.6110000014305115 -8.857999801635742,1.1100000143051147 -8.246000289916992,1.1100000143051147 C-8.246000289916992,1.1100000143051147 8.246000289916992,1.1100000143051147 8.246000289916992,1.1100000143051147 C8.857999801635742,1.1100000143051147 9.357000350952148,0.6110000014305115 9.357000350952148,0 C9.357000350952148,-0.6119999885559082 8.857999801635742,-1.1109999418258667 8.246000289916992,-1.1109999418258667 C8.246000289916992,-1.1109999418258667 -8.246000289916992,-1.1109999418258667 -8.246000289916992,-1.1109999418258667z"></path><g opacity="1" transform="matrix(1,0,0,1,0,0)"></g><g opacity="1" transform="matrix(1,0,0,1,0,0)"><path fill="rgb(255,255,255)" fill-opacity="1" d="M0 0"></path><path stroke-linecap="butt" stroke-linejoin="miter" fill-opacity="0" stroke-miterlimit="4" stroke="rgb(255,255,255)" stroke-opacity="1" stroke-width="0" d="M0 0"></path></g></g><g opacity="1" transform="matrix(1,0,0,1,66.93000030517578,257.635009765625)"><path fill="rgb(50,50,127)" fill-opacity="1" d=" M6.48799991607666,2.1449999809265137 C6.48799991607666,2.1449999809265137 -6.486000061035156,2.1449999809265137 -6.486000061035156,2.1449999809265137 C-7.668000221252441,2.1449999809265137 -8.630000114440918,1.1820000410079956 -8.630000114440918,0 C-8.630000114440918,-1.1820000410079956 -7.668000221252441,-2.1449999809265137 -6.486000061035156,-2.1449999809265137 C-6.486000061035156,-2.1449999809265137 6.48799991607666,-2.1449999809265137 6.48799991607666,-2.1449999809265137 C7.670000076293945,-2.1449999809265137 8.630000114440918,-1.1820000410079956 8.630000114440918,0 C8.630000114440918,1.1820000410079956 7.670000076293945,2.1449999809265137 6.48799991607666,2.1449999809265137z M-6.486000061035156,-0.9629999995231628 C-7.017000198364258,-0.9629999995231628 -7.448999881744385,-0.531000018119812 -7.448999881744385,0 C-7.448999881744385,0.531000018119812 -7.017000198364258,0.9629999995231628 -6.486000061035156,0.9629999995231628 C-6.486000061035156,0.9629999995231628 6.48799991607666,0.9629999995231628 6.48799991607666,0.9629999995231628 C7.015999794006348,0.9629999995231628 7.447999954223633,0.531000018119812 7.447999954223633,0 C7.447999954223633,-0.531000018119812 7.015999794006348,-0.9629999995231628 6.48799991607666,-0.9629999995231628 C6.48799991607666,-0.9629999995231628 -6.486000061035156,-0.9629999995231628 -6.486000061035156,-0.9629999995231628z"></path></g></g><g transform="matrix(0.9890850186347961,0,0,1,926.2466430664062,509.2960205078125)" opacity="1" style="display: block;"><g opacity="1" transform="matrix(1,0,0,1,17.091999053955078,4.091000080108643)"><path fill="rgb(50,50,127)" fill-opacity="1" d=" M16.841999053955078,3.8410000801086426 C16.841999053955078,3.8410000801086426 -16.841999053955078,3.8410000801086426 -16.841999053955078,3.8410000801086426 C-16.841999053955078,3.8410000801086426 -16.841999053955078,-3.8410000801086426 -16.841999053955078,-3.8410000801086426 C-16.841999053955078,-3.8410000801086426 16.841999053955078,-3.8410000801086426 16.841999053955078,-3.8410000801086426 C16.841999053955078,-3.8410000801086426 16.841999053955078,3.8410000801086426 16.841999053955078,3.8410000801086426z"></path></g></g><g transform="matrix(0.9890850186347961,0,0,1,926.2466430664062,567.7960205078125)" opacity="1" style="display: block;"><g opacity="1" transform="matrix(1,0,0,1,17.091999053955078,4.091000080108643)"><path fill="rgb(50,50,127)" fill-opacity="1" d=" M16.841999053955078,3.8410000801086426 C16.841999053955078,3.8410000801086426 -16.841999053955078,3.8410000801086426 -16.841999053955078,3.8410000801086426 C-16.841999053955078,3.8410000801086426 -16.841999053955078,-3.8410000801086426 -16.841999053955078,-3.8410000801086426 C-16.841999053955078,-3.8410000801086426 16.841999053955078,-3.8410000801086426 16.841999053955078,-3.8410000801086426 C16.841999053955078,-3.8410000801086426 16.841999053955078,3.8410000801086426 16.841999053955078,3.8410000801086426z"></path></g></g><g transform="matrix(0.7473593950271606,0,0,1,926.2974853515625,524.3639526367188)" opacity="1" style="display: block;"><g opacity="1" transform="matrix(1,0,0,1,19.01300048828125,1.1369999647140503)"><path fill="rgb(50,50,127)" fill-opacity="1" d=" M18.76300048828125,0.8870000243186951 C18.76300048828125,0.8870000243186951 -18.76300048828125,0.8870000243186951 -18.76300048828125,0.8870000243186951 C-18.76300048828125,0.8870000243186951 -18.76300048828125,-0.8870000243186951 -18.76300048828125,-0.8870000243186951 C-18.76300048828125,-0.8870000243186951 18.76300048828125,-0.8870000243186951 18.76300048828125,-0.8870000243186951 C18.76300048828125,-0.8870000243186951 18.76300048828125,0.8870000243186951 18.76300048828125,0.8870000243186951z"></path></g></g><g transform="matrix(0.5623040795326233,0,0,1,926.3461303710938,582.8639526367188)" opacity="1" style="display: block;"><g opacity="1" transform="matrix(1,0,0,1,19.01300048828125,1.1369999647140503)"><path fill="rgb(50,50,127)" fill-opacity="1" d=" M18.76300048828125,0.8870000243186951 C18.76300048828125,0.8870000243186951 -18.76300048828125,0.8870000243186951 -18.76300048828125,0.8870000243186951 C-18.76300048828125,0.8870000243186951 -18.76300048828125,-0.8870000243186951 -18.76300048828125,-0.8870000243186951 C-18.76300048828125,-0.8870000243186951 18.76300048828125,-0.8870000243186951 18.76300048828125,-0.8870000243186951 C18.76300048828125,-0.8870000243186951 18.76300048828125,0.8870000243186951 18.76300048828125,0.8870000243186951z"></path></g></g><g transform="matrix(0.35568901896476746,0,0,1,926.4004516601562,533.8639526367188)" opacity="1" style="display: block;"><g opacity="1" transform="matrix(1,0,0,1,19.01300048828125,1.1369999647140503)"><path fill="rgb(50,50,127)" fill-opacity="1" d=" M18.76300048828125,0.8870000243186951 C18.76300048828125,0.8870000243186951 -18.76300048828125,0.8870000243186951 -18.76300048828125,0.8870000243186951 C-18.76300048828125,0.8870000243186951 -18.76300048828125,-0.8870000243186951 -18.76300048828125,-0.8870000243186951 C-18.76300048828125,-0.8870000243186951 18.76300048828125,-0.8870000243186951 18.76300048828125,-0.8870000243186951 C18.76300048828125,-0.8870000243186951 18.76300048828125,0.8870000243186951 18.76300048828125,0.8870000243186951z"></path></g></g><g transform="matrix(0.8744504451751709,0,0,1,926.2640380859375,592.3639526367188)" opacity="1" style="display: block;"><g opacity="1" transform="matrix(1,0,0,1,19.01300048828125,1.1369999647140503)"><path fill="rgb(50,50,127)" fill-opacity="1" d=" M18.76300048828125,0.8870000243186951 C18.76300048828125,0.8870000243186951 -18.76300048828125,0.8870000243186951 -18.76300048828125,0.8870000243186951 C-18.76300048828125,0.8870000243186951 -18.76300048828125,-0.8870000243186951 -18.76300048828125,-0.8870000243186951 C-18.76300048828125,-0.8870000243186951 18.76300048828125,-0.8870000243186951 18.76300048828125,-0.8870000243186951 C18.76300048828125,-0.8870000243186951 18.76300048828125,0.8870000243186951 18.76300048828125,0.8870000243186951z"></path></g></g><g transform="matrix(0.6179839968681335,0,0,1,926.3314819335938,543.3639526367188)" opacity="1" style="display: block;"><g opacity="1" transform="matrix(1,0,0,1,19.01300048828125,1.1369999647140503)"><path fill="rgb(50,50,127)" fill-opacity="1" d=" M18.76300048828125,0.8870000243186951 C18.76300048828125,0.8870000243186951 -18.76300048828125,0.8870000243186951 -18.76300048828125,0.8870000243186951 C-18.76300048828125,0.8870000243186951 -18.76300048828125,-0.8870000243186951 -18.76300048828125,-0.8870000243186951 C-18.76300048828125,-0.8870000243186951 18.76300048828125,-0.8870000243186951 18.76300048828125,-0.8870000243186951 C18.76300048828125,-0.8870000243186951 18.76300048828125,0.8870000243186951 18.76300048828125,0.8870000243186951z"></path></g></g><g transform="matrix(0.6503347158432007,0,0,1,926.322998046875,601.8639526367188)" opacity="1" style="display: block;"><g opacity="1" transform="matrix(1,0,0,1,19.01300048828125,1.1369999647140503)"><path fill="rgb(50,50,127)" fill-opacity="1" d=" M18.76300048828125,0.8870000243186951 C18.76300048828125,0.8870000243186951 -18.76300048828125,0.8870000243186951 -18.76300048828125,0.8870000243186951 C-18.76300048828125,0.8870000243186951 -18.76300048828125,-0.8870000243186951 -18.76300048828125,-0.8870000243186951 C-18.76300048828125,-0.8870000243186951 18.76300048828125,-0.8870000243186951 18.76300048828125,-0.8870000243186951 C18.76300048828125,-0.8870000243186951 18.76300048828125,0.8870000243186951 18.76300048828125,0.8870000243186951z"></path></g></g><g transform="matrix(0.7617266774177551,0,0,1,925.918701171875,551.2389526367188)" opacity="1" style="display: block;"><g opacity="1" transform="matrix(1,0,0,1,19.01300048828125,1.1369999647140503)"><path fill="rgb(50,50,127)" fill-opacity="1" d=" M18.76300048828125,0.8870000243186951 C18.76300048828125,0.8870000243186951 -18.76300048828125,0.8870000243186951 -18.76300048828125,0.8870000243186951 C-18.76300048828125,0.8870000243186951 -18.76300048828125,-0.8870000243186951 -18.76300048828125,-0.8870000243186951 C-18.76300048828125,-0.8870000243186951 18.76300048828125,-0.8870000243186951 18.76300048828125,-0.8870000243186951 C18.76300048828125,-0.8870000243186951 18.76300048828125,0.8870000243186951 18.76300048828125,0.8870000243186951z"></path></g></g><g transform="matrix(0.5906660556793213,0,0,1,925.9636840820312,609.7389526367188)" opacity="1" style="display: block;"><g opacity="1" transform="matrix(1,0,0,1,19.01300048828125,1.1369999647140503)"><path fill="rgb(50,50,127)" fill-opacity="1" d=" M18.76300048828125,0.8870000243186951 C18.76300048828125,0.8870000243186951 -18.76300048828125,0.8870000243186951 -18.76300048828125,0.8870000243186951 C-18.76300048828125,0.8870000243186951 -18.76300048828125,-0.8870000243186951 -18.76300048828125,-0.8870000243186951 C-18.76300048828125,-0.8870000243186951 18.76300048828125,-0.8870000243186951 18.76300048828125,-0.8870000243186951 C18.76300048828125,-0.8870000243186951 18.76300048828125,0.8870000243186951 18.76300048828125,0.8870000243186951z"></path></g></g><g filter="url(#__lottie_element_786)" transform="matrix(1,0,0,1,857.6809692382812,652.156005859375)" opacity="1" style="display: block;"><g opacity="1" transform="matrix(1,0,0,1,23.011999130249023,4.091000080108643)"><path fill="rgb(50,50,127)" fill-opacity="1" d=" M22.761999130249023,3.8410000801086426 C22.761999130249023,3.8410000801086426 -22.761999130249023,3.8410000801086426 -22.761999130249023,3.8410000801086426 C-22.761999130249023,3.8410000801086426 -22.761999130249023,-3.8410000801086426 -22.761999130249023,-3.8410000801086426 C-22.761999130249023,-3.8410000801086426 22.761999130249023,-3.8410000801086426 22.761999130249023,-3.8410000801086426 C22.761999130249023,-3.8410000801086426 22.761999130249023,3.8410000801086426 22.761999130249023,3.8410000801086426z"></path></g></g><g transform="matrix(1,0,0,1,910.625,652.0289916992188)" opacity="1" style="display: block;"><g opacity="1" transform="matrix(1,0,0,1,15.819999694824219,4.2179999351501465)"><path fill="rgb(50,50,127)" fill-opacity="1" d=" M15.569999694824219,3.9679999351501465 C15.569999694824219,3.9679999351501465 -15.569999694824219,3.9679999351501465 -15.569999694824219,3.9679999351501465 C-15.569999694824219,3.9679999351501465 -15.569999694824219,-3.9679999351501465 -15.569999694824219,-3.9679999351501465 C-15.569999694824219,-3.9679999351501465 15.569999694824219,-3.9679999351501465 15.569999694824219,-3.9679999351501465 C15.569999694824219,-3.9679999351501465 15.569999694824219,3.9679999351501465 15.569999694824219,3.9679999351501465z M-13.79800033569336,2.194999933242798 C-13.79800033569336,2.194999933242798 13.79699993133545,2.194999933242798 13.79699993133545,2.194999933242798 C13.79699993133545,2.194999933242798 13.79699993133545,-2.196000099182129 13.79699993133545,-2.196000099182129 C13.79699993133545,-2.196000099182129 -13.79800033569336,-2.196000099182129 -13.79800033569336,-2.196000099182129 C-13.79800033569336,-2.196000099182129 -13.79800033569336,2.194999933242798 -13.79800033569336,2.194999933242798z"></path></g></g><g transform="matrix(0.7651006579399109,0,0,1,857.6891479492188,667.2239990234375)" opacity="1" style="display: block;"><g opacity="1" transform="matrix(1,0,0,1,53.28900146484375,1.1369999647140503)"><path fill="rgb(50,50,127)" fill-opacity="1" d=" M53.03900146484375,0.8870000243186951 C53.03900146484375,0.8870000243186951 -53.03900146484375,0.8870000243186951 -53.03900146484375,0.8870000243186951 C-53.03900146484375,0.8870000243186951 -53.03900146484375,-0.8870000243186951 -53.03900146484375,-0.8870000243186951 C-53.03900146484375,-0.8870000243186951 53.03900146484375,-0.8870000243186951 53.03900146484375,-0.8870000243186951 C53.03900146484375,-0.8870000243186951 53.03900146484375,0.8870000243186951 53.03900146484375,0.8870000243186951z"></path></g></g><g transform="matrix(0.7162078619003296,0,0,1,857.6910400390625,674.5989990234375)" opacity="1" style="display: block;"><g opacity="1" transform="matrix(1,0,0,1,53.28900146484375,1.1369999647140503)"><path fill="rgb(50,50,127)" fill-opacity="1" d=" M53.03900146484375,0.8870000243186951 C53.03900146484375,0.8870000243186951 -53.03900146484375,0.8870000243186951 -53.03900146484375,0.8870000243186951 C-53.03900146484375,0.8870000243186951 -53.03900146484375,-0.8870000243186951 -53.03900146484375,-0.8870000243186951 C-53.03900146484375,-0.8870000243186951 53.03900146484375,-0.8870000243186951 53.03900146484375,-0.8870000243186951 C53.03900146484375,-0.8870000243186951 53.03900146484375,0.8870000243186951 53.03900146484375,0.8870000243186951z"></path></g></g><g transform="matrix(0.805799663066864,0,0,1,857.6875610351562,681.9739990234375)" opacity="1" style="display: block;"><g opacity="1" transform="matrix(1,0,0,1,53.28900146484375,1.1369999647140503)"><path fill="rgb(50,50,127)" fill-opacity="1" d=" M53.03900146484375,0.8870000243186951 C53.03900146484375,0.8870000243186951 -53.03900146484375,0.8870000243186951 -53.03900146484375,0.8870000243186951 C-53.03900146484375,0.8870000243186951 -53.03900146484375,-0.8870000243186951 -53.03900146484375,-0.8870000243186951 C-53.03900146484375,-0.8870000243186951 53.03900146484375,-0.8870000243186951 53.03900146484375,-0.8870000243186951 C53.03900146484375,-0.8870000243186951 53.03900146484375,0.8870000243186951 53.03900146484375,0.8870000243186951z"></path></g></g><g transform="matrix(0.7673353552818298,0,0,1,857.6890869140625,689.5989990234375)" opacity="1" style="display: block;"><g opacity="1" transform="matrix(1,0,0,1,53.28900146484375,1.1369999647140503)"><path fill="rgb(50,50,127)" fill-opacity="1" d=" M53.03900146484375,0.8870000243186951 C53.03900146484375,0.8870000243186951 -53.03900146484375,0.8870000243186951 -53.03900146484375,0.8870000243186951 C-53.03900146484375,0.8870000243186951 -53.03900146484375,-0.8870000243186951 -53.03900146484375,-0.8870000243186951 C-53.03900146484375,-0.8870000243186951 53.03900146484375,-0.8870000243186951 53.03900146484375,-0.8870000243186951 C53.03900146484375,-0.8870000243186951 53.03900146484375,0.8870000243186951 53.03900146484375,0.8870000243186951z"></path></g></g><g transform="matrix(1,0,0,1,540,540)" opacity="1" style="display: block;"><g opacity="1" transform="matrix(1,0,0,1,345.36199951171875,-7.0879998207092285)"><path fill="rgb(24,23,63)" fill-opacity="1" d=" M0,-20.16200065612793 C11.127408027648926,-20.16200065612793 20.16200065612793,-11.127408027648926 20.16200065612793,0 C20.16200065612793,11.127408027648926 11.127408027648926,20.16200065612793 0,20.16200065612793 C-11.127408027648926,20.16200065612793 -20.16200065612793,11.127408027648926 -20.16200065612793,0 C-20.16200065612793,-11.127408027648926 -11.127408027648926,-20.16200065612793 0,-20.16200065612793z"></path><path fill="rgb(24,23,63)" fill-opacity="1" d=" M0,-20.16200065612793 C11.127408027648926,-20.16200065612793 20.16200065612793,-11.127408027648926 20.16200065612793,0 C20.16200065612793,11.127408027648926 11.127408027648926,20.16200065612793 0,20.16200065612793 C-11.127408027648926,20.16200065612793 -20.16200065612793,11.127408027648926 -20.16200065612793,0 C-20.16200065612793,-11.127408027648926 -11.127408027648926,-20.16200065612793 0,-20.16200065612793z"></path><path stroke-linecap="butt" stroke-linejoin="miter" fill-opacity="0" stroke-miterlimit="4" stroke="rgb(255,255,255)" stroke-opacity="1" stroke-width="0" d=" M0,-20.16200065612793 C11.127408027648926,-20.16200065612793 20.16200065612793,-11.127408027648926 20.16200065612793,0 C20.16200065612793,11.127408027648926 11.127408027648926,20.16200065612793 0,20.16200065612793 C-11.127408027648926,20.16200065612793 -20.16200065612793,11.127408027648926 -20.16200065612793,0 C-20.16200065612793,-11.127408027648926 -11.127408027648926,-20.16200065612793 0,-20.16200065612793z"></path></g><g opacity="1" transform="matrix(1,0,0,1,345.36199951171875,-7.0879998207092285)"><path stroke-linecap="butt" stroke-linejoin="miter" fill-opacity="0" stroke-miterlimit="4" stroke="rgb(64,236,182)" stroke-opacity="1" stroke-width="11" d=" M0,-20.16200065612793 C11.127408027648926,-20.16200065612793 20.16200065612793,-11.127408027648926 20.16200065612793,0 C20.16200065612793,8.619000434875488 14.741999626159668,15.982000350952148 7.126999855041504,18.86400032043457"></path></g></g><g transform="matrix(1,0,0,1,540,598)" opacity="1" style="display: block;"><g opacity="1" transform="matrix(1,0,0,1,0,0)"></g><g opacity="1" transform="matrix(1,0,0,1,345.36199951171875,-7.0879998207092285)"><path fill="rgb(24,23,63)" fill-opacity="1" d=" M0,-20.16200065612793 C11.127408027648926,-20.16200065612793 20.16200065612793,-11.127408027648926 20.16200065612793,0 C20.16200065612793,11.127408027648926 11.127408027648926,20.16200065612793 0,20.16200065612793 C-11.127408027648926,20.16200065612793 -20.16200065612793,11.127408027648926 -20.16200065612793,0 C-20.16200065612793,-11.127408027648926 -11.127408027648926,-20.16200065612793 0,-20.16200065612793z"></path><path fill="rgb(24,23,63)" fill-opacity="1" d=" M0,-20.16200065612793 C11.127408027648926,-20.16200065612793 20.16200065612793,-11.127408027648926 20.16200065612793,0 C20.16200065612793,11.127408027648926 11.127408027648926,20.16200065612793 0,20.16200065612793 C-11.127408027648926,20.16200065612793 -20.16200065612793,11.127408027648926 -20.16200065612793,0 C-20.16200065612793,-11.127408027648926 -11.127408027648926,-20.16200065612793 0,-20.16200065612793z"></path><path stroke-linecap="butt" stroke-linejoin="miter" fill-opacity="0" stroke-miterlimit="4" stroke="rgb(255,255,255)" stroke-opacity="1" stroke-width="0" d=" M0,-20.16200065612793 C11.127408027648926,-20.16200065612793 20.16200065612793,-11.127408027648926 20.16200065612793,0 C20.16200065612793,11.127408027648926 11.127408027648926,20.16200065612793 0,20.16200065612793 C-11.127408027648926,20.16200065612793 -20.16200065612793,11.127408027648926 -20.16200065612793,0 C-20.16200065612793,-11.127408027648926 -11.127408027648926,-20.16200065612793 0,-20.16200065612793z"></path></g><g opacity="1" transform="matrix(1,0,0,1,345.36199951171875,-7.0879998207092285)"><path stroke-linecap="butt" stroke-linejoin="miter" fill-opacity="0" stroke-miterlimit="4" stroke="rgb(64,236,182)" stroke-opacity="1" stroke-width="11" d=" M0,-20.16200065612793 C8.779000282287598,-20.16200065612793 16.256000518798828,-14.538000106811523 19.020000457763672,-6.698999881744385"></path></g></g></g><g filter="url(#__lottie_element_758)" transform="matrix(1,0,0,1,500.6809997558594,470.656005859375)" opacity="1" style="display: block;"><g opacity="1" transform="matrix(1,0,0,1,23.011999130249023,4.091000080108643)"><path fill="rgb(50,50,127)" fill-opacity="1" d=" M22.761999130249023,3.8410000801086426 C22.761999130249023,3.8410000801086426 -22.761999130249023,3.8410000801086426 -22.761999130249023,3.8410000801086426 C-22.761999130249023,3.8410000801086426 -22.761999130249023,-3.8410000801086426 -22.761999130249023,-3.8410000801086426 C-22.761999130249023,-3.8410000801086426 22.761999130249023,-3.8410000801086426 22.761999130249023,-3.8410000801086426 C22.761999130249023,-3.8410000801086426 22.761999130249023,3.8410000801086426 22.761999130249023,3.8410000801086426z"></path></g></g><g transform="matrix(0.7800071835517883,0,0,1,500.6885681152344,495.2239990234375)" opacity="1" style="display: block;"><g opacity="1" transform="matrix(1,0,0,1,53.28900146484375,1.1369999647140503)"><path fill="rgb(50,50,127)" fill-opacity="1" d=" M53.03900146484375,0.8870000243186951 C53.03900146484375,0.8870000243186951 -53.03900146484375,0.8870000243186951 -53.03900146484375,0.8870000243186951 C-53.03900146484375,0.8870000243186951 -53.03900146484375,-0.8870000243186951 -53.03900146484375,-0.8870000243186951 C-53.03900146484375,-0.8870000243186951 53.03900146484375,-0.8870000243186951 53.03900146484375,-0.8870000243186951 C53.03900146484375,-0.8870000243186951 53.03900146484375,0.8870000243186951 53.03900146484375,0.8870000243186951z"></path></g></g><g transform="matrix(0.7926291823387146,0,0,1,500.6880798339844,505.5989990234375)" opacity="1" style="display: block;"><g opacity="1" transform="matrix(1,0,0,1,53.28900146484375,1.1369999647140503)"><path fill="rgb(50,50,127)" fill-opacity="1" d=" M53.03900146484375,0.8870000243186951 C53.03900146484375,0.8870000243186951 -53.03900146484375,0.8870000243186951 -53.03900146484375,0.8870000243186951 C-53.03900146484375,0.8870000243186951 -53.03900146484375,-0.8870000243186951 -53.03900146484375,-0.8870000243186951 C-53.03900146484375,-0.8870000243186951 53.03900146484375,-0.8870000243186951 53.03900146484375,-0.8870000243186951 C53.03900146484375,-0.8870000243186951 53.03900146484375,0.8870000243186951 53.03900146484375,0.8870000243186951z"></path></g></g><g transform="matrix(0.7395860552787781,0,0,1,500.6901550292969,517.9739990234375)" opacity="1" style="display: block;"><g opacity="1" transform="matrix(1,0,0,1,53.28900146484375,1.1369999647140503)"><path fill="rgb(50,50,127)" fill-opacity="1" d=" M53.03900146484375,0.8870000243186951 C53.03900146484375,0.8870000243186951 -53.03900146484375,0.8870000243186951 -53.03900146484375,0.8870000243186951 C-53.03900146484375,0.8870000243186951 -53.03900146484375,-0.8870000243186951 -53.03900146484375,-0.8870000243186951 C-53.03900146484375,-0.8870000243186951 53.03900146484375,-0.8870000243186951 53.03900146484375,-0.8870000243186951 C53.03900146484375,-0.8870000243186951 53.03900146484375,0.8870000243186951 53.03900146484375,0.8870000243186951z"></path></g></g><g transform="matrix(1,0,0,1,311,549)" opacity="1" style="display: block;"><g opacity="1" transform="matrix(1,0,0,1,0,0)"></g><g opacity="1" transform="matrix(1,0,0,1,345.36199951171875,-7.0879998207092285)"><path fill="rgb(24,23,63)" fill-opacity="1" d=" M0,-20.16200065612793 C11.127408027648926,-20.16200065612793 20.16200065612793,-11.127408027648926 20.16200065612793,0 C20.16200065612793,11.127408027648926 11.127408027648926,20.16200065612793 0,20.16200065612793 C-11.127408027648926,20.16200065612793 -20.16200065612793,11.127408027648926 -20.16200065612793,0 C-20.16200065612793,-11.127408027648926 -11.127408027648926,-20.16200065612793 0,-20.16200065612793z"></path><path fill="rgb(24,23,63)" fill-opacity="1" d=" M0,-20.16200065612793 C11.127408027648926,-20.16200065612793 20.16200065612793,-11.127408027648926 20.16200065612793,0 C20.16200065612793,11.127408027648926 11.127408027648926,20.16200065612793 0,20.16200065612793 C-11.127408027648926,20.16200065612793 -20.16200065612793,11.127408027648926 -20.16200065612793,0 C-20.16200065612793,-11.127408027648926 -11.127408027648926,-20.16200065612793 0,-20.16200065612793z"></path><path stroke-linecap="butt" stroke-linejoin="miter" fill-opacity="0" stroke-miterlimit="4" stroke="rgb(255,255,255)" stroke-opacity="1" stroke-width="0" d=" M0,-20.16200065612793 C11.127408027648926,-20.16200065612793 20.16200065612793,-11.127408027648926 20.16200065612793,0 C20.16200065612793,11.127408027648926 11.127408027648926,20.16200065612793 0,20.16200065612793 C-11.127408027648926,20.16200065612793 -20.16200065612793,11.127408027648926 -20.16200065612793,0 C-20.16200065612793,-11.127408027648926 -11.127408027648926,-20.16200065612793 0,-20.16200065612793z"></path></g><g opacity="1" transform="matrix(1,0,0,1,345.36199951171875,-7.0879998207092285)"><path stroke-linecap="butt" stroke-linejoin="miter" fill-opacity="0" stroke-miterlimit="4" stroke="rgb(64,236,182)" stroke-opacity="1" stroke-width="11" d=" M0,-20.16200065612793 C7.502999782562256,-20.16200065612793 14.055000305175781,-16.054000854492188 17.527000427246094,-9.967000007629395"></path></g></g><g transform="matrix(1,0,0,1,311,482)" opacity="1" style="display: block;"><g opacity="1" transform="matrix(1,0,0,1,0,0)"></g><g opacity="1" transform="matrix(1,0,0,1,345.36199951171875,-7.0879998207092285)"><path fill="rgb(24,23,63)" fill-opacity="1" d=" M0,-20.16200065612793 C11.127408027648926,-20.16200065612793 20.16200065612793,-11.127408027648926 20.16200065612793,0 C20.16200065612793,11.127408027648926 11.127408027648926,20.16200065612793 0,20.16200065612793 C-11.127408027648926,20.16200065612793 -20.16200065612793,11.127408027648926 -20.16200065612793,0 C-20.16200065612793,-11.127408027648926 -11.127408027648926,-20.16200065612793 0,-20.16200065612793z"></path><path fill="rgb(24,23,63)" fill-opacity="1" d=" M0,-20.16200065612793 C11.127408027648926,-20.16200065612793 20.16200065612793,-11.127408027648926 20.16200065612793,0 C20.16200065612793,11.127408027648926 11.127408027648926,20.16200065612793 0,20.16200065612793 C-11.127408027648926,20.16200065612793 -20.16200065612793,11.127408027648926 -20.16200065612793,0 C-20.16200065612793,-11.127408027648926 -11.127408027648926,-20.16200065612793 0,-20.16200065612793z"></path><path stroke-linecap="butt" stroke-linejoin="miter" fill-opacity="0" stroke-miterlimit="4" stroke="rgb(255,255,255)" stroke-opacity="1" stroke-width="0" d=" M0,-20.16200065612793 C11.127408027648926,-20.16200065612793 20.16200065612793,-11.127408027648926 20.16200065612793,0 C20.16200065612793,11.127408027648926 11.127408027648926,20.16200065612793 0,20.16200065612793 C-11.127408027648926,20.16200065612793 -20.16200065612793,11.127408027648926 -20.16200065612793,0 C-20.16200065612793,-11.127408027648926 -11.127408027648926,-20.16200065612793 0,-20.16200065612793z"></path></g><g opacity="1" transform="matrix(1,0,0,1,345.36199951171875,-7.0879998207092285)"><path stroke-linecap="butt" stroke-linejoin="miter" fill-opacity="0" stroke-miterlimit="4" stroke="rgb(64,236,182)" stroke-opacity="1" stroke-width="11" d=" M0,-20.16200065612793 C8.779000282287598,-20.16200065612793 16.256000518798828,-14.538000106811523 19.020000457763672,-6.698999881744385"></path></g></g><g transform="matrix(0.02327294461429119,-0.9997291564941406,0.9997291564941406,0.02327294461429119,361.1383056640625,320.8831787109375)" opacity="1" style="display: block;"><g opacity="1" transform="matrix(1,0,0,1,33.67900085449219,33.67300033569336)"><path fill="rgb(50,50,127)" fill-opacity="1" d=" M27.941999435424805,-7.182000160217285 C26.697999954223633,-10.182999610900879 26.08300018310547,-11.689000129699707 24.84000015258789,-14.678000450134277 C24.84000015258789,-14.678000450134277 27.45199966430664,-20.177000045776367 27.45199966430664,-20.177000045776367 C23.823999404907227,-23.805999755859375 23.81100082397461,-23.81800079345703 20.170000076293945,-27.458999633789062 C20.170000076293945,-27.458999633789062 14.670999526977539,-24.834999084472656 14.670999526977539,-24.834999084472656 C11.682000160217285,-26.077999114990234 10.175999641418457,-26.70599937438965 7.188000202178955,-27.948999404907227 C7.188000202178955,-27.948999404907227 5.140999794006348,-33.67399978637695 5.140999794006348,-33.67399978637695 C5.140999794006348,-33.67399978637695 -5.140999794006348,-33.67399978637695 -5.140999794006348,-33.67399978637695 C-5.140999794006348,-33.67399978637695 -7.188000202178955,-27.948999404907227 -7.188000202178955,-27.948999404907227 C-10.175999641418457,-26.70599937438965 -11.682999610900879,-26.077999114990234 -14.670999526977539,-24.834999084472656 C-14.670999526977539,-24.834999084472656 -20.170000076293945,-27.458999633789062 -20.170000076293945,-27.458999633789062 C-23.812000274658203,-23.81800079345703 -23.823999404907227,-23.805999755859375 -27.452999114990234,-20.177000045776367 C-27.452999114990234,-20.177000045776367 -24.840999603271484,-14.678000450134277 -24.840999603271484,-14.678000450134277 C-26.083999633789062,-11.689000129699707 -26.698999404907227,-10.182999610900879 -27.941999435424805,-7.182000160217285 C-27.941999435424805,-7.182000160217285 -33.68000030517578,-5.1479997634887695 -33.68000030517578,-5.1479997634887695 C-33.68000030517578,-5.1479997634887695 -33.68000030517578,5.146999835968018 -33.68000030517578,5.146999835968018 C-33.68000030517578,5.146999835968018 -27.941999435424805,7.181000232696533 -27.941999435424805,7.181000232696533 C-26.698999404907227,10.182000160217285 -26.083999633789062,11.687999725341797 -24.840999603271484,14.677000045776367 C-24.840999603271484,14.677000045776367 -27.452999114990234,20.176000595092773 -27.452999114990234,20.176000595092773 C-23.823999404907227,23.80500030517578 -23.812000274658203,23.816999435424805 -20.170000076293945,27.45800018310547 C-20.170000076293945,27.45800018310547 -14.670999526977539,24.833999633789062 -14.670999526977539,24.833999633789062 C-11.682999610900879,26.07699966430664 -10.175999641418457,26.70400047302246 -7.188000202178955,27.947999954223633 C-7.188000202178955,27.947999954223633 -5.140999794006348,33.67300033569336 -5.140999794006348,33.67300033569336 C-5.140999794006348,33.67300033569336 5.140999794006348,33.67300033569336 5.140999794006348,33.67300033569336 C5.140999794006348,33.67300033569336 7.188000202178955,27.947999954223633 7.188000202178955,27.947999954223633 C10.175999641418457,26.70400047302246 11.682000160217285,26.07699966430664 14.670999526977539,24.833999633789062 C14.670999526977539,24.833999633789062 20.170000076293945,27.45800018310547 20.170000076293945,27.45800018310547 C23.81100082397461,23.816999435424805 23.823999404907227,23.80500030517578 27.45199966430664,20.176000595092773 C27.45199966430664,20.176000595092773 24.84000015258789,14.677000045776367 24.84000015258789,14.677000045776367 C26.08300018310547,11.687999725341797 26.697999954223633,10.182000160217285 27.941999435424805,7.181000232696533 C27.941999435424805,7.181000232696533 33.67900085449219,5.146999835968018 33.67900085449219,5.146999835968018 C33.67900085449219,5.146999835968018 33.67900085449219,-5.1479997634887695 33.67900085449219,-5.1479997634887695 C33.67900085449219,-5.1479997634887695 27.941999435424805,-7.182000160217285 27.941999435424805,-7.182000160217285z"></path></g><g opacity="1" transform="matrix(1,0,0,1,33.68000030517578,33.67300033569336)"><path fill="rgb(91,91,153)" fill-opacity="1" d=" M0.0010000000474974513,25.731000900268555 C-14.187999725341797,25.731000900268555 -25.729999542236328,14.187999725341797 -25.729999542236328,0 C-25.729999542236328,-14.187999725341797 -14.187999725341797,-25.731000900268555 0.0010000000474974513,-25.731000900268555 C14.187999725341797,-25.731000900268555 25.729999542236328,-14.187999725341797 25.729999542236328,0 C25.729999542236328,14.187999725341797 14.187999725341797,25.731000900268555 0.0010000000474974513,25.731000900268555z M0.0010000000474974513,-24.604000091552734 C-13.565999984741211,-24.604000091552734 -24.60300064086914,-13.567000389099121 -24.60300064086914,0 C-24.60300064086914,13.567000389099121 -13.565999984741211,24.604000091552734 0.0010000000474974513,24.604000091552734 C13.567000389099121,24.604000091552734 24.604000091552734,13.567000389099121 24.604000091552734,0 C24.604000091552734,-13.567000389099121 13.567000389099121,-24.604000091552734 0.0010000000474974513,-24.604000091552734z"></path></g><g opacity="1" transform="matrix(1,0,0,1,33.14500045776367,33.2859992980957)"><path fill="rgb(255,255,255)" fill-opacity="1" d=" M0,-13.71500015258789 C7.569308757781982,-13.71500015258789 13.71500015258789,-7.569308757781982 13.71500015258789,0 C13.71500015258789,7.569308757781982 7.569308757781982,13.71500015258789 0,13.71500015258789 C-7.569308757781982,13.71500015258789 -13.71500015258789,7.569308757781982 -13.71500015258789,0 C-13.71500015258789,-7.569308757781982 -7.569308757781982,-13.71500015258789 0,-13.71500015258789z"></path><path stroke-linecap="butt" stroke-linejoin="miter" fill-opacity="0" stroke-miterlimit="4" stroke="rgb(255,255,255)" stroke-opacity="1" stroke-width="0" d=" M0,-13.71500015258789 C7.569308757781982,-13.71500015258789 13.71500015258789,-7.569308757781982 13.71500015258789,0 C13.71500015258789,7.569308757781982 7.569308757781982,13.71500015258789 0,13.71500015258789 C-7.569308757781982,13.71500015258789 -13.71500015258789,7.569308757781982 -13.71500015258789,0 C-13.71500015258789,-7.569308757781982 -7.569308757781982,-13.71500015258789 0,-13.71500015258789z"></path></g></g><g transform="matrix(-0.9070947170257568,-1.1276891231536865,1.1276891231536865,-0.9070947170257568,777.1632080078125,589.52197265625)" opacity="1" style="display: block;"><g opacity="1" transform="matrix(1,0,0,1,33.67900085449219,33.67300033569336)"><path fill="rgb(50,50,127)" fill-opacity="1" d=" M27.941999435424805,-7.182000160217285 C26.697999954223633,-10.182999610900879 26.08300018310547,-11.689000129699707 24.84000015258789,-14.678000450134277 C24.84000015258789,-14.678000450134277 27.45199966430664,-20.177000045776367 27.45199966430664,-20.177000045776367 C23.823999404907227,-23.805999755859375 23.81100082397461,-23.81800079345703 20.170000076293945,-27.458999633789062 C20.170000076293945,-27.458999633789062 14.670999526977539,-24.834999084472656 14.670999526977539,-24.834999084472656 C11.682000160217285,-26.077999114990234 10.175999641418457,-26.70599937438965 7.188000202178955,-27.948999404907227 C7.188000202178955,-27.948999404907227 5.140999794006348,-33.67399978637695 5.140999794006348,-33.67399978637695 C5.140999794006348,-33.67399978637695 -5.140999794006348,-33.67399978637695 -5.140999794006348,-33.67399978637695 C-5.140999794006348,-33.67399978637695 -7.188000202178955,-27.948999404907227 -7.188000202178955,-27.948999404907227 C-10.175999641418457,-26.70599937438965 -11.682999610900879,-26.077999114990234 -14.670999526977539,-24.834999084472656 C-14.670999526977539,-24.834999084472656 -20.170000076293945,-27.458999633789062 -20.170000076293945,-27.458999633789062 C-23.812000274658203,-23.81800079345703 -23.823999404907227,-23.805999755859375 -27.452999114990234,-20.177000045776367 C-27.452999114990234,-20.177000045776367 -24.840999603271484,-14.678000450134277 -24.840999603271484,-14.678000450134277 C-26.083999633789062,-11.689000129699707 -26.698999404907227,-10.182999610900879 -27.941999435424805,-7.182000160217285 C-27.941999435424805,-7.182000160217285 -33.68000030517578,-5.1479997634887695 -33.68000030517578,-5.1479997634887695 C-33.68000030517578,-5.1479997634887695 -33.68000030517578,5.146999835968018 -33.68000030517578,5.146999835968018 C-33.68000030517578,5.146999835968018 -27.941999435424805,7.181000232696533 -27.941999435424805,7.181000232696533 C-26.698999404907227,10.182000160217285 -26.083999633789062,11.687999725341797 -24.840999603271484,14.677000045776367 C-24.840999603271484,14.677000045776367 -27.452999114990234,20.176000595092773 -27.452999114990234,20.176000595092773 C-23.823999404907227,23.80500030517578 -23.812000274658203,23.816999435424805 -20.170000076293945,27.45800018310547 C-20.170000076293945,27.45800018310547 -14.670999526977539,24.833999633789062 -14.670999526977539,24.833999633789062 C-11.682999610900879,26.07699966430664 -10.175999641418457,26.70400047302246 -7.188000202178955,27.947999954223633 C-7.188000202178955,27.947999954223633 -5.140999794006348,33.67300033569336 -5.140999794006348,33.67300033569336 C-5.140999794006348,33.67300033569336 5.140999794006348,33.67300033569336 5.140999794006348,33.67300033569336 C5.140999794006348,33.67300033569336 7.188000202178955,27.947999954223633 7.188000202178955,27.947999954223633 C10.175999641418457,26.70400047302246 11.682000160217285,26.07699966430664 14.670999526977539,24.833999633789062 C14.670999526977539,24.833999633789062 20.170000076293945,27.45800018310547 20.170000076293945,27.45800018310547 C23.81100082397461,23.816999435424805 23.823999404907227,23.80500030517578 27.45199966430664,20.176000595092773 C27.45199966430664,20.176000595092773 24.84000015258789,14.677000045776367 24.84000015258789,14.677000045776367 C26.08300018310547,11.687999725341797 26.697999954223633,10.182000160217285 27.941999435424805,7.181000232696533 C27.941999435424805,7.181000232696533 33.67900085449219,5.146999835968018 33.67900085449219,5.146999835968018 C33.67900085449219,5.146999835968018 33.67900085449219,-5.1479997634887695 33.67900085449219,-5.1479997634887695 C33.67900085449219,-5.1479997634887695 27.941999435424805,-7.182000160217285 27.941999435424805,-7.182000160217285z"></path></g><g opacity="1" transform="matrix(1,0,0,1,33.68000030517578,33.67300033569336)"><path fill="rgb(91,91,153)" fill-opacity="1" d=" M0.0010000000474974513,25.731000900268555 C-14.187999725341797,25.731000900268555 -25.729999542236328,14.187999725341797 -25.729999542236328,0 C-25.729999542236328,-14.187999725341797 -14.187999725341797,-25.731000900268555 0.0010000000474974513,-25.731000900268555 C14.187999725341797,-25.731000900268555 25.729999542236328,-14.187999725341797 25.729999542236328,0 C25.729999542236328,14.187999725341797 14.187999725341797,25.731000900268555 0.0010000000474974513,25.731000900268555z M0.0010000000474974513,-24.604000091552734 C-13.565999984741211,-24.604000091552734 -24.60300064086914,-13.567000389099121 -24.60300064086914,0 C-24.60300064086914,13.567000389099121 -13.565999984741211,24.604000091552734 0.0010000000474974513,24.604000091552734 C13.567000389099121,24.604000091552734 24.604000091552734,13.567000389099121 24.604000091552734,0 C24.604000091552734,-13.567000389099121 13.567000389099121,-24.604000091552734 0.0010000000474974513,-24.604000091552734z"></path></g><g opacity="1" transform="matrix(1,0,0,1,33.14500045776367,33.2859992980957)"><path fill="rgb(255,255,255)" fill-opacity="1" d=" M0,-13.71500015258789 C7.569308757781982,-13.71500015258789 13.71500015258789,-7.569308757781982 13.71500015258789,0 C13.71500015258789,7.569308757781982 7.569308757781982,13.71500015258789 0,13.71500015258789 C-7.569308757781982,13.71500015258789 -13.71500015258789,7.569308757781982 -13.71500015258789,0 C-13.71500015258789,-7.569308757781982 -7.569308757781982,-13.71500015258789 0,-13.71500015258789z"></path><path stroke-linecap="butt" stroke-linejoin="miter" fill-opacity="0" stroke-miterlimit="4" stroke="rgb(255,255,255)" stroke-opacity="1" stroke-width="0" d=" M0,-13.71500015258789 C7.569308757781982,-13.71500015258789 13.71500015258789,-7.569308757781982 13.71500015258789,0 C13.71500015258789,7.569308757781982 7.569308757781982,13.71500015258789 0,13.71500015258789 C-7.569308757781982,13.71500015258789 -13.71500015258789,7.569308757781982 -13.71500015258789,0 C-13.71500015258789,-7.569308757781982 -7.569308757781982,-13.71500015258789 0,-13.71500015258789z"></path></g></g><g transform="matrix(1,0,0,1,540,540)" opacity="1" style="display: block;"></g></g></svg>